<svg xmlns="http://www.w3.org/2000/svg" width="20.208" height="20.202" viewBox="0 0 20.208 20.202">
  <path id="Контур_5643" data-name="Контур 5643" d="M74.609,47.254A1.953,1.953,0,0,1,76.476,45.3a9.625,9.625,0,0,0-1.132-2.946A1.953,1.953,0,0,1,72.8,39.5a9.653,9.653,0,0,0-3.882-1.751,1.955,1.955,0,0,1-3.89,0,9.651,9.651,0,0,0-3.93,1.789,1.954,1.954,0,0,1-2.511,2.847,9.631,9.631,0,0,0-1.115,2.919,1.955,1.955,0,0,1,0,3.89,9.634,9.634,0,0,0,1.115,2.92A1.954,1.954,0,0,1,61.1,54.966a9.651,9.651,0,0,0,3.93,1.789,1.955,1.955,0,0,1,3.89,0A9.65,9.65,0,0,0,72.8,55a1.953,1.953,0,0,1,2.541-2.853,9.626,9.626,0,0,0,1.132-2.946A1.954,1.954,0,0,1,74.609,47.254Zm-7.632,3.215a3.215,3.215,0,1,1,3.214-3.215A3.215,3.215,0,0,1,66.977,50.469Z" transform="translate(-56.875 -37.154)" fill="#fff" stroke="#133f2c" stroke-width="1"/>
</svg>
