<svg xmlns="http://www.w3.org/2000/svg" width="21.993" height="21.993" viewBox="0 0 21.993 21.993">
  <g id="Сгруппировать_694" data-name="Сгруппировать 694" transform="translate(-95.807 -74.463)">
    <g id="Сгруппировать_689" data-name="Сгруппировать 689" transform="translate(110.533 78.659)">
      <g id="Сгруппировать_688" data-name="Сгруппировать 688" transform="translate(0)">
        <path id="Контур_5696" data-name="Контур 5696" d="M129.231,87.012a1.764,1.764,0,1,1,1.763-1.762A1.765,1.765,0,0,1,129.231,87.012Zm0-2.453a.689.689,0,1,0,.688.69A.691.691,0,0,0,129.231,84.559Z" transform="translate(-127.467 -83.485)" fill="#fff"/>
      </g>
    </g>
    <g id="Сгруппировать_691" data-name="Сгруппировать 691" transform="translate(101.661 80.276)">
      <g id="Сгруппировать_690" data-name="Сгруппировать 690" transform="translate(0 0)">
        <path id="Контур_5697" data-name="Контур 5697" d="M113.577,97.327a5.183,5.183,0,1,1,5.183-5.183A5.189,5.189,0,0,1,113.577,97.327Zm0-9.292a4.109,4.109,0,1,0,4.108,4.109A4.114,4.114,0,0,0,113.577,88.035Z" transform="translate(-108.393 -86.96)" fill="#fff"/>
      </g>
    </g>
    <g id="Сгруппировать_693" data-name="Сгруппировать 693" transform="translate(95.807 74.463)">
      <g id="Сгруппировать_692" data-name="Сгруппировать 692">
        <path id="Контур_5698" data-name="Контур 5698" d="M110.98,96.456h-8.351a6.829,6.829,0,0,1-6.822-6.821V81.283a6.829,6.829,0,0,1,6.822-6.82h8.351a6.828,6.828,0,0,1,6.82,6.82v8.352A6.828,6.828,0,0,1,110.98,96.456Zm-8.351-20.918a5.753,5.753,0,0,0-5.747,5.745v8.352a5.753,5.753,0,0,0,5.747,5.746h8.351a5.752,5.752,0,0,0,5.745-5.746V81.283a5.752,5.752,0,0,0-5.745-5.745Z" transform="translate(-95.807 -74.463)" fill="#fff"/>
      </g>
    </g>
  </g>
</svg>
