<svg xmlns="http://www.w3.org/2000/svg" xmlns:xlink="http://www.w3.org/1999/xlink" width="200" height="200" viewBox="0 0 200 200">
  <defs>
    <clipPath id="clip-Портфолио">
      <rect width="200" height="200"/>
    </clipPath>
  </defs>
  <g id="Портфолио" clip-path="url(#clip-Портфолио)">
    <g id="Сгруппировать_574" data-name="Сгруппировать 574" transform="translate(14.727 23.829)">
      <path id="Контур_5622" data-name="Контур 5622" d="M92.079,357.224a102.194,102.194,0,0,1-3.23,28.395,84.833,84.833,0,0,1-4.669,13.435,53.707,53.707,0,0,1-7.335,12.055,39.768,39.768,0,0,1-4.891,5.08L70.6,417.326c-.229.189-.206.172-.436.183l-.879-.033c-1.178-.07-2.356-.194-3.533-.341a59.213,59.213,0,0,1-13.772-3.641,66.89,66.89,0,0,1-23.572-15.808c-.821-.862-1.68-1.686-2.47-2.576l-2.289-2.737c-1.585-1.775-2.885-3.775-4.3-5.682L18.3,385.249a.27.27,0,0,1-.045-.246.238.238,0,0,1,.055-.094l.286-.29q1.269-1.287,2.5-2.6,2.471-2.63,4.821-5.369c6.262-7.292,12.155-14.995,16.666-23.589a63.529,63.529,0,0,0,3.034-6.625l.328-.809a.084.084,0,0,1,.051-.054c.019,0,0-.008.058,0l.441.071.882.142,3.535.569c4.715.775,9.407,1.686,14.094,2.625,4.686.955,9.346,2.042,13.962,3.3,2.314.611,4.593,1.345,6.862,2.1,1.129.393,2.271.757,3.386,1.192l1.68.629a5.078,5.078,0,0,1,.8.335A.905.905,0,0,1,92.079,357.224Zm.18-.007a1.091,1.091,0,0,0-.439-.842,4.918,4.918,0,0,0-.841-.375l-1.672-.662c-1.11-.457-2.245-.841-3.37-1.257-2.255-.816-4.543-1.538-6.822-2.286-4.567-1.473-9.189-2.776-13.836-3.979-4.646-1.222-9.343-2.23-14.057-3.16-1.18-.227-2.357-.464-3.543-.662l-.891-.148-.445-.072a1.934,1.934,0,0,0-.833.041,1.908,1.908,0,0,0-1.244,1.1l-.351.855a61.584,61.584,0,0,1-2.978,6.417,112.811,112.811,0,0,1-7.559,12.057c-2.743,3.889-5.683,7.646-8.751,11.3-1.527,1.832-3.111,3.617-4.7,5.393l-2.418,2.632-.334.36a1.733,1.733,0,0,0-.36.692,1.76,1.76,0,0,0,.272,1.463l1.093,1.444a66.733,66.733,0,0,0,4.528,5.645l2.414,2.695c.83.874,1.73,1.683,2.59,2.525a76.344,76.344,0,0,0,24.035,15.684A70.047,70.047,0,0,0,65.6,418.13c1.193.194,2.392.366,3.6.481l.916.066a1.676,1.676,0,0,0,1.206-.394l1.439-1.123a38.294,38.294,0,0,0,5.228-5.09c6.331-7.471,9.987-16.8,11.96-26.19A108.27,108.27,0,0,0,91.926,371.6,133.773,133.773,0,0,0,92.258,357.217Z" transform="translate(-16.757 -343.746)" fill="#fff"/>
      <path id="Контур_5623" data-name="Контур 5623" d="M87.475,359.668A100.118,100.118,0,0,1,85.046,372.3c-1.046,4.162-2.2,8.295-3.5,12.378-1.32,4.075-2.641,8.145-4.214,12.112a79.491,79.491,0,0,1-5.365,11.546A31.2,31.2,0,0,1,70.284,411c-.3.434-.6.858-.939,1.258l-.488.612a.748.748,0,0,1-.364.246A3.911,3.911,0,0,1,67.178,413c-.516-.093-1.035-.2-1.554-.316-1.035-.234-2.072-.489-3.1-.776a90.1,90.1,0,0,1-12.1-4.247A85.848,85.848,0,0,1,39,401.806a70.016,70.016,0,0,1-10.327-7.568,56.151,56.151,0,0,1-4.543-4.482q-1.076-1.177-2.063-2.423c-.342-.4-.657-.832-.97-1.258l-.476-.635a4.4,4.4,0,0,1-.382-.54.7.7,0,0,1,.122-.748l1.07-1.18,2.183-2.372c1.454-1.585,2.9-3.185,4.3-4.816,2.824-3.257,5.568-6.589,8.161-10.048a82.4,82.4,0,0,0,7.088-10.911c.512-.964.99-1.951,1.441-2.953l.636-1.525.287-.78.143-.389a.787.787,0,0,1,.07-.151.462.462,0,0,1,.492-.206l1.583.233,3.164.51c4.217.7,8.428,1.469,12.618,2.358,4.2.851,8.372,1.832,12.5,2.984q3.1.848,6.147,1.9c1.021.331,2.026.706,3.035,1.071.5.187,1.027.358,1.495.557A1.317,1.317,0,0,1,87.475,359.668Zm.181.013a1.515,1.515,0,0,0-.771-1.439c-.513-.233-1-.4-1.508-.6-1-.389-2-.788-3.014-1.145-2.02-.735-4.053-1.435-6.085-2.147q-6.112-2.075-12.361-3.759c-4.171-1.077-8.374-2.06-12.621-2.818l-3.194-.535-1.6-.245A2.338,2.338,0,0,0,44.2,348a2.72,2.72,0,0,0-.281.571l-.136.365-.274.732-.611,1.444c-.436.953-.9,1.9-1.4,2.828A130.362,130.362,0,0,1,26.658,374.7l-4.191,4.869-2.126,2.419-1.065,1.229a2.118,2.118,0,0,0-.3,2.27,4.629,4.629,0,0,0,.544.774l.506.641c.335.429.676.853,1.041,1.256q1.058,1.244,2.2,2.4a59.123,59.123,0,0,0,4.785,4.4,96.946,96.946,0,0,0,22.118,13.272,124.327,124.327,0,0,0,12.074,4.62c1.028.329,2.068.629,3.117.91.524.139,1.053.269,1.59.386.271.056.536.116.82.159a2.274,2.274,0,0,0,1.046,0,2,2,0,0,0,.983-.594l.542-.624c.371-.411.711-.842,1.039-1.284a31.225,31.225,0,0,0,1.863-2.7c4.5-7.5,7.21-15.794,9.411-24.109q1.618-6.257,2.858-12.591c.4-2.113.829-4.22,1.192-6.338S87.468,361.832,87.656,359.681Z" transform="translate(-14.52 -343.087)" fill="#fff"/>
      <path id="Контур_5624" data-name="Контур 5624" d="M35.018,391.145a4.076,4.076,0,0,0,2.9,2.6,4.29,4.29,0,0,0,2.028-.008l1.931-.388a53.893,53.893,0,0,0,7.658-2.08c5.008-1.771,9.775-5.219,12.279-10.19a16.54,16.54,0,0,0,1.372-3.885,9.349,9.349,0,0,0,.047-4.183,5.483,5.483,0,0,0-2.464-3.39,11.03,11.03,0,0,0-3.815-1.373,16.493,16.493,0,0,0-7.946.56,15.565,15.565,0,0,0-6.829,4.314l1.329.5a36.988,36.988,0,0,0,.013-7.3,12.306,12.306,0,0,0-3.232-6.971,8.519,8.519,0,0,0-3.471-2.181,7.79,7.79,0,0,0-4.177-.112,6.373,6.373,0,0,0-3.606,2.411,8.4,8.4,0,0,0-1.363,3.876c-.707,5.049.494,9.981,2.148,14.456l1.253,3.366c.438,1.111.918,2.208,1.376,3.312C33.366,386.677,34.2,388.908,35.018,391.145Zm.218-.077c-.777-2.249-1.535-4.505-2.212-6.786-.329-1.143-.681-2.277-.99-3.425s-.575-2.309-.833-3.465c-.986-4.614-1.819-9.252-1.118-13.694a6.782,6.782,0,0,1,.973-2.8,3.906,3.906,0,0,1,2.218-1.464,5.489,5.489,0,0,1,2.876-.006,6.231,6.231,0,0,1,2.556,1.513,10.742,10.742,0,0,1,2.866,5.69,45.264,45.264,0,0,1,.433,6.957l.064,2.16,1.266-1.663a14,14,0,0,1,13.488-5.139,9.031,9.031,0,0,1,3.481,1.368,4.185,4.185,0,0,1,1.821,2.924c.318,2.368-.667,4.863-1.912,6.963-2.609,4.244-6.719,7.376-11.285,9.654a50.264,50.264,0,0,1-7.215,2.869c-.622.2-1.243.4-1.874.571a3.883,3.883,0,0,1-1.852.129A3.7,3.7,0,0,1,35.236,391.068Z" transform="translate(-0.784 -341.063)" fill="#fff"/>
    </g>
    <g id="Сгруппировать_6" data-name="Сгруппировать 6" transform="matrix(-0.985, -0.174, 0.174, -0.985, 169.339, 176.171)">
      <g id="Сгруппировать_4" data-name="Сгруппировать 4" transform="translate(0 0)">
        <path id="Контур_1" data-name="Контур 1" d="M34.762,8.455A20,20,0,0,0,22.475.364a18.511,18.511,0,0,0-7.586.061A18.739,18.739,0,0,0,7.945,3.536a19.269,19.269,0,0,0-5.1,5.6,20.054,20.054,0,0,0-2.4,14.554A20.051,20.051,0,0,0,3.4,30.6a19.144,19.144,0,0,0,12.468,8.121,19.65,19.65,0,0,0,7.639-.14A19.232,19.232,0,0,0,30.5,35.469,19,19,0,0,0,35.725,29.9,18.767,18.767,0,0,0,38.3,22.745,19.946,19.946,0,0,0,34.762,8.455Zm-.095.066a18.121,18.121,0,0,1,2.878,14.094,19.335,19.335,0,0,1-7.737,11.879A18.767,18.767,0,0,1,3.918,30.238,18.135,18.135,0,0,1,.651,16.263,18.463,18.463,0,0,1,8.5,4.318a19.645,19.645,0,0,1,13.853-3.24,18.734,18.734,0,0,1,6.9,2.432A17.84,17.84,0,0,1,34.668,8.522Z" transform="translate(39.516 20.605)" fill="#fff"/>
        <path id="Контур_2" data-name="Контур 2" d="M4.473,9.089a30.919,30.919,0,0,0,6.083,2.445,10.236,10.236,0,0,0,6.662-.2,7.5,7.5,0,0,0,2.744-2.027,5.874,5.874,0,0,0,1.324-3.087,5.2,5.2,0,0,0-.665-3.255A4.969,4.969,0,0,0,17.943.931,8.783,8.783,0,0,0,14.594.516C13.483.56,12.4.694,11.358.731,9.3.864,7.277,0,4.92,0A5.651,5.651,0,0,0,1.525,1.019l-.365.269c-.114.1-.22.224-.328.336a3.19,3.19,0,0,0-.54.78A2.865,2.865,0,0,0,.069,4.257a4.384,4.384,0,0,0,.689,1.6A7.5,7.5,0,0,0,1.831,7.147,11.758,11.758,0,0,0,4.473,9.089Zm.053-.1A8.285,8.285,0,0,1,2.069,6.931,5.163,5.163,0,0,1,.824,4.16a2.162,2.162,0,0,1,.325-1.293,2.2,2.2,0,0,1,.444-.506c.086-.076.163-.159.254-.232l.305-.192a4.749,4.749,0,0,1,2.771-.7c2,0,4.174.793,6.488.584,2.232-.15,4.317-.783,6.35-.279a4.2,4.2,0,0,1,2.528,1.641,4.319,4.319,0,0,1,.624,2.995,4.744,4.744,0,0,1-1.428,2.7,6.935,6.935,0,0,1-2.618,1.566,13.841,13.841,0,0,1-6.173.382A18.194,18.194,0,0,1,4.526,8.987Z" transform="translate(46.547 44.897)" fill="#fff"/>
        <path id="Контур_3" data-name="Контур 3" d="M5.339,1.626A4.041,4.041,0,0,0,3.531.146,2.485,2.485,0,0,0,1.089.59,3.316,3.316,0,0,0,.032,2.774a3.931,3.931,0,0,0,.4,2.316A2.92,2.92,0,0,0,2.42,6.6a3.166,3.166,0,0,0,2.552-.51A2.758,2.758,0,0,0,6.142,3.827,3.96,3.96,0,0,0,5.339,1.626Zm-.095.067a2.052,2.052,0,0,1,.147,2A3.286,3.286,0,0,1,4.26,5.08a2.537,2.537,0,0,1-1.654.441,2.8,2.8,0,0,1-1.657-.8A2.057,2.057,0,0,1,.4,2.838,2.311,2.311,0,0,1,1.644,1.377a4.371,4.371,0,0,1,1.762-.5A2.031,2.031,0,0,1,5.244,1.693Z" transform="translate(65.682 38.526)" fill="#fff"/>
        <path id="Контур_4" data-name="Контур 4" d="M3.376,1.177A3.109,3.109,0,0,0,2.268.138,1.494,1.494,0,0,0,.631.4,2.235,2.235,0,0,0,.015,1.885,3.026,3.026,0,0,0,.234,3.4a2.038,2.038,0,0,0,3.035.739A1.715,1.715,0,0,0,4,2.571,2.984,2.984,0,0,0,3.376,1.177Zm-.094.067a1.065,1.065,0,0,1-.035,1.2,2.641,2.641,0,0,1-.691.685,1.518,1.518,0,0,1-.847.258,1.745,1.745,0,0,1-.958-.353A1.051,1.051,0,0,1,.383,1.949a1.232,1.232,0,0,1,.8-.762A7.818,7.818,0,0,1,2.143.864,1.053,1.053,0,0,1,3.282,1.244Z" transform="translate(70.334 45.063)" fill="#fff"/>
        <path id="Контур_5" data-name="Контур 5" d="M43.972,10.6A25.078,25.078,0,0,0,28.4.435,23.59,23.59,0,0,0,10.09,4.462,24.367,24.367,0,0,0,3.625,11.5,25.106,25.106,0,0,0,.572,29.873,25.141,25.141,0,0,0,4.329,38.6,24.229,24.229,0,0,0,20.077,48.788a24.747,24.747,0,0,0,9.617-.192A24.407,24.407,0,0,0,45.08,37.671a23.84,23.84,0,0,0,3.28-9A25.018,25.018,0,0,0,43.972,10.6Zm-.094.066A23.186,23.186,0,0,1,47.61,28.544,24.413,24.413,0,0,1,37.8,43.7,23.837,23.837,0,0,1,4.846,38.23,23.209,23.209,0,0,1,.724,20.471,23.549,23.549,0,0,1,10.643,5.245,24.711,24.711,0,0,1,28.28,1.151a23.817,23.817,0,0,1,8.75,3.141A22.929,22.929,0,0,1,43.878,10.666Z" transform="translate(34.447 15.537)" fill="#fff"/>
        <path id="Контур_6" data-name="Контур 6" d="M50.964,12.227A28.94,28.94,0,0,0,32.905.491,27.43,27.43,0,0,0,11.718,5.167a28.231,28.231,0,0,0-7.5,8.122A28.947,28.947,0,0,0,.667,34.569,29,29,0,0,0,5.033,44.664a28.039,28.039,0,0,0,18.24,11.765A28.59,28.59,0,0,0,34.391,56.2,28.244,28.244,0,0,0,52.182,43.575,27.706,27.706,0,0,0,56,33.175,28.885,28.885,0,0,0,50.964,12.227Zm-.095.067a27.034,27.034,0,0,1,4.382,20.751A28.27,28.27,0,0,1,43.871,50.7a27.62,27.62,0,0,1-30.431.9A28.1,28.1,0,0,1,5.55,44.3,27.067,27.067,0,0,1,.779,23.666,27.408,27.408,0,0,1,12.27,5.95,28.566,28.566,0,0,1,32.782,1.206a27.683,27.683,0,0,1,10.152,3.68A26.771,26.771,0,0,1,50.87,12.294Z" transform="translate(30.598 11.689)" fill="#fff"/>
        <path id="Контур_7" data-name="Контур 7" d="M11.031,16.927a7.538,7.538,0,0,0,1.438-2.755,8.269,8.269,0,0,0,.331-3.124,12.529,12.529,0,0,0-.893-3c-.193-.474-.409-.94-.617-1.41-.263-.437-.425-.947-.725-1.368A11.017,11.017,0,0,0,8.659,2.809,10.424,10.424,0,0,0,6.147.889,6.513,6.513,0,0,0,0,.679l.048.1a8.452,8.452,0,0,1,5.513,1.19,18.911,18.911,0,0,1,4.49,3.667,4.006,4.006,0,0,1,.466.574c.149.2.29.4.426.61a7.816,7.816,0,0,1,.611,1.351,9.223,9.223,0,0,1,.284,2.915,21.163,21.163,0,0,1-.908,5.778Z" transform="translate(74.915 16.428)" fill="#fff"/>
        <path id="Контур_8" data-name="Контур 8" d="M6.276,1.841A4.514,4.514,0,0,0,4.134.15,3,3,0,0,0,1.307.682,3.826,3.826,0,0,0,.038,3.2,4.409,4.409,0,0,0,.526,5.9,3.419,3.419,0,0,0,2.849,7.617a3.688,3.688,0,0,0,2.936-.594,3.269,3.269,0,0,0,1.381-2.6A4.447,4.447,0,0,0,6.276,1.841Zm-.094.067A2.544,2.544,0,0,1,6.416,4.3,3.725,3.725,0,0,1,5.073,6.015a3.038,3.038,0,0,1-2.04.53,3.346,3.346,0,0,1-1.99-1.009A2.559,2.559,0,0,1,.407,3.263a2.841,2.841,0,0,1,1.455-1.8A4.529,4.529,0,0,1,4.009.876,2.526,2.526,0,0,1,6.182,1.908Z" transform="translate(35.798 68.924)" fill="#fff"/>
        <path id="Контур_9" data-name="Контур 9" d="M35.658,24.142c-3.271,1.984-6.516,4.009-9.721,6.1-1.6,1.045-3.191,2.116-4.733,3.265A17.331,17.331,0,0,0,18.963,35.4a22.93,22.93,0,0,1-1.7,2.237,5.948,5.948,0,0,1-2.437,1.105c-.905.237-1.837.416-2.774.574A12.5,12.5,0,0,0,6.634,41.55a27.053,27.053,0,0,0-4.378,3.839c-.334.362-.65.691-.978,1.109A6.233,6.233,0,0,0,.5,47.833a6.07,6.07,0,0,0-.463,3.043A68.2,68.2,0,0,0,9.086,72.067a100.676,100.676,0,0,0,14.34,17.968l.367.365.121-.51A10.475,10.475,0,0,1,26,85.5a10.156,10.156,0,0,1,3.942-2.866,16.51,16.51,0,0,1,4.813-1.148,21.781,21.781,0,0,1,4.971.109l.066.009.053-.03,10.607-5.968-.194,0c4.2,2.178,8.395,4.366,12.646,6.454,1.063.521,2.13,1.035,3.208,1.532a25.014,25.014,0,0,0,3.354,1.349,1.054,1.054,0,0,0,.58,0c.153-.045.321-.086.46-.136l.848-.3c.553-.219,1.114-.424,1.659-.659,1.1-.452,2.185-.937,3.262-1.436A77.661,77.661,0,0,0,88.626,75.3c.986-.671,1.893-1.454,2.845-2.176l1.341-1.2a16.193,16.193,0,0,0,1.3-1.24l1.251-1.3c.4-.448.762-.934,1.146-1.4l.567-.705c.187-.238.334-.506.5-.758l.978-1.536.1-.151-.037-.217a110.087,110.087,0,0,1-1.574-12.7,25.175,25.175,0,0,1,.024-3.138,6.343,6.343,0,0,1,.263-1.425,1.388,1.388,0,0,1,.118-.264l.063-.111.119-.15c.156-.2.32-.4.493-.606a40.277,40.277,0,0,0,3.976-5.176,15.41,15.41,0,0,0,1.434-3.026,9.891,9.891,0,0,0,.51-3.38,9.836,9.836,0,0,0-.817-3.307c-.422-1.013-.887-2-1.377-2.962a94.328,94.328,0,0,0-6.7-11.084A86,86,0,0,0,86.99,7.235L85.864,6.067,84.679,4.957c-.77-.761-1.622-1.435-2.454-2.13a15.7,15.7,0,0,0-1.3-.983L79.6.9A5.731,5.731,0,0,0,76.333,0a5.847,5.847,0,0,0-1.677.308,8.949,8.949,0,0,0-1.5.719L70.334,2.589c-1.875,1.05-3.752,2.1-5.6,3.189-3.7,2.18-7.385,4.4-10.94,6.822l.064.1c3.616-2.313,7.353-4.429,11.111-6.5l5.652-3.082L73.46,1.6A8.421,8.421,0,0,1,74.867.945,5.146,5.146,0,0,1,76.351.694a5.026,5.026,0,0,1,2.842.824l1.281.941a15.144,15.144,0,0,1,1.254.98c.806.694,1.63,1.365,2.377,2.126l1.148,1.11,1.093,1.167A84.992,84.992,0,0,1,94.26,17.9a107.774,107.774,0,0,1,6.536,11c.918,1.9,1.956,3.844,2.054,5.791a8.716,8.716,0,0,1-.458,2.952,14.22,14.22,0,0,1-1.327,2.777,39.218,39.218,0,0,1-3.881,5.015c-.176.2-.351.419-.525.642l-.13.164c-.048.069-.1.156-.146.234a2.444,2.444,0,0,0-.21.468,7.419,7.419,0,0,0-.318,1.733,26.18,26.18,0,0,0-.006,3.3,111.073,111.073,0,0,0,1.677,12.846l.059-.368-.92,1.462c-.158.241-.294.5-.471.725l-.54.68c-.365.449-.708.917-1.091,1.352l-1.2,1.263A15.31,15.31,0,0,1,92.1,71.149l-1.3,1.176c-.922.72-1.8,1.5-2.758,2.173a76.762,76.762,0,0,1-12.1,7.209c-1.06.511-2.128,1.007-3.21,1.469-.537.241-1.085.45-1.627.674l-.819.3c-.138.053-.257.08-.387.123-.068.025-.133.04-.143.027a.616.616,0,0,1-.146-.024,25.451,25.451,0,0,1-3.236-1.257c-1.077-.478-2.148-.974-3.217-1.477q-6.4-3.034-12.708-6.294l-.1-.051-.095.054L39.672,81.264l.119-.021a22.123,22.123,0,0,0-5.067-.15,16.906,16.906,0,0,0-4.947,1.142,10.536,10.536,0,0,0-6.432,7.522l.488-.143A104,104,0,0,1,9.913,71.557,78.6,78.6,0,0,1,4.624,61.47c-.365-.876-.76-1.739-1.114-2.619l-.967-2.676c-.349-.883-.58-1.8-.846-2.713L1.306,52.1l-.2-.684a5.661,5.661,0,0,1-.119-.644A5.116,5.116,0,0,1,1.364,48.2a7.157,7.157,0,0,1,1.566-2.186,26.21,26.21,0,0,1,4.2-3.74,12,12,0,0,1,5.062-2.169c.945-.178,1.889-.375,2.83-.64a6.59,6.59,0,0,0,2.706-1.309,20.956,20.956,0,0,0,1.728-2.338,17.283,17.283,0,0,1,2.108-1.834c1.509-1.156,3.063-2.266,4.628-3.361q4.7-3.276,9.525-6.383Z" transform="translate(0)" fill="#fff"/>
        <path id="Контур_10" data-name="Контур 10" d="M.067,5.619A36.8,36.8,0,0,0,3.909,3.41q.927-.6,1.829-1.234c.6-.419,1.172-.889,1.737-1.365L7.031.826l1.859.93c.61.326,1.211.665,1.794,1.036,1.172.73,2.28,1.566,3.4,2.373s2.3,1.538,3.45,2.3,2.345,1.458,3.55,2.133l-.242-.657c-.267.96-.532,1.92-.753,2.895s-.452,1.946-.618,2.938l.109.036c.451-.9.85-1.816,1.235-2.737s.749-1.849,1.1-2.781l.15-.4-.392-.26c-1.151-.763-2.316-1.506-3.52-2.182s-2.39-1.385-3.62-2.019S12.054,3.2,10.869,2.486c-.6-.348-1.173-.728-1.741-1.122L7.452.136,7.266,0,7.008.151c-.637.372-1.27.75-1.867,1.18s-1.193.861-1.775,1.31A36.715,36.715,0,0,0,0,5.524Z" transform="translate(50.322 69.861)" fill="#fff"/>
        <path id="Контур_11" data-name="Контур 11" d="M9.523,0A39.12,39.12,0,0,0,4.854.967c-.764.208-1.529.411-2.283.654S1.08,2.16.341,2.451L0,2.586l.089.29A33.107,33.107,0,0,1,1.118,6.892c.251,1.358.4,2.737.591,4.107s.466,2.724.7,4.084.553,2.705.891,4.045l.114.452.419-.008c1-.019,1.991-.039,2.989-.106s1.994-.122,2.993-.242l0-.116c-.991-.171-1.983-.291-2.976-.395s-1.986-.189-2.979-.258L4.4,18.9c-.229-1.362-.488-2.719-.811-4.061s-.63-2.69-1-4.022-.795-2.654-1.111-4A32.986,32.986,0,0,1,.8,2.725L.552,3.15c.776-.167,1.556-.325,2.317-.543s1.512-.469,2.264-.718A39.233,39.233,0,0,0,9.557.111Z" transform="translate(88.249 45.556)" fill="#fff"/>
        <path id="Контур_12" data-name="Контур 12" d="M0,14.4c1.838-1,3.609-2.1,5.358-3.234s3.467-2.306,5.173-3.5c1.694-1.208,3.38-2.429,5.026-3.7S18.836,1.4,20.4,0c-1.839,1-3.611,2.1-5.359,3.233s-3.467,2.306-5.173,3.5C8.172,7.94,6.486,9.161,4.84,10.436S1.562,13.009,0,14.4Z" transform="translate(71.704 64.569)" fill="#fff"/>
        <path id="Контур_13" data-name="Контур 13" d="M0,12.182A3.746,3.746,0,0,0,1.652,13.6a5.271,5.271,0,0,0,1.057.342c.181.035.364.079.547.107l.553.038a10.344,10.344,0,0,0,4.255-.839,23.424,23.424,0,0,0,3.644-2.2c.565-.42,1.171-.776,1.735-1.191s1.15-.8,1.744-1.18l-.362-.042a1.958,1.958,0,0,0,1.041.826,1.932,1.932,0,0,0,1.408-.079c.754-.416,1.361-.8,2.044-1.2,1.313-.827,2.649-1.62,3.938-2.484S25.816,3.931,27.061,3,29.536,1.117,30.722.1L30.658,0c-1.405.687-2.764,1.445-4.112,2.219s-2.667,1.593-3.969,2.437S20.02,6.414,18.742,7.295L16.891,8.64a1.234,1.234,0,0,1-1.66-.337l-.16-.214-.2.17a20.552,20.552,0,0,1-3.389,2.413A27.866,27.866,0,0,1,7.7,12.313a14.6,14.6,0,0,1-3.885.892A5.052,5.052,0,0,1,.095,12.117Z" transform="translate(23.582 77.675)" fill="#fff"/>
        <path id="Контур_14" data-name="Контур 14" d="M7.3.632A1.688,1.688,0,0,0,6.156.053,4.765,4.765,0,0,0,4.827.04,4.672,4.672,0,0,0,2.452,1.11,9.456,9.456,0,0,0,.8,3.1,5.906,5.906,0,0,0,.172,4.232,2.658,2.658,0,0,0,0,4.9a1.384,1.384,0,0,0,.167.764,1.716,1.716,0,0,0,1.348.745A3.931,3.931,0,0,0,2.9,6.277a7.1,7.1,0,0,0,2.4-1.127A5.5,5.5,0,0,0,7.039,3.167a4.747,4.747,0,0,0,.432-1.26A1.66,1.66,0,0,0,7.3.632ZM7.2.7a1.008,1.008,0,0,1,.138.553,1.5,1.5,0,0,1-.172.557,3.35,3.35,0,0,1-.745.908A19.341,19.341,0,0,1,4.594,4.143,9.583,9.583,0,0,1,2.589,5.236a4.383,4.383,0,0,1-1.05.249A1.091,1.091,0,0,1,.686,5.3a.992.992,0,0,1-.141-.948A2.82,2.82,0,0,1,1.1,3.32,6.683,6.683,0,0,1,3.007,1.9c.685-.387,1.338-.782,2.033-1.15a3.358,3.358,0,0,1,1.108-.4A1.083,1.083,0,0,1,7.2.7Z" transform="translate(28.804 82.509)" fill="#fff"/>
        <path id="Контур_15" data-name="Контур 15" d="M0,6.714A11.347,11.347,0,0,0,1.1,9.645c.127.232.264.463.412.689A2.348,2.348,0,0,0,2.228,11a2.107,2.107,0,0,0,1.9.14,3.909,3.909,0,0,0,.72-.452l.624-.459c.415-.308.829-.616,1.26-.894a26.609,26.609,0,0,1,2.693-1.5,26.875,26.875,0,0,0,2.708-1.5A30.471,30.471,0,0,0,14.7,4.608,16.867,16.867,0,0,0,18.957.074L18.869,0c-1.61,1.3-3.244,2.446-4.9,3.618L11.522,5.437C10.7,6.03,9.888,6.657,9.086,7.3a18.447,18.447,0,0,1-2.548,1.71c-.449.244-.918.456-1.39.659l-.708.305a4.776,4.776,0,0,1-.64.257,1.5,1.5,0,0,1-1.066-.124,1.343,1.343,0,0,1-.426-.352c-.15-.19-.3-.382-.446-.586C1.275,8.364.727,7.5.106,6.668Z" transform="translate(40.475 80.049)" fill="#fff"/>
        <path id="Контур_16" data-name="Контур 16" d="M.085,12.549a4.673,4.673,0,0,0,.126,2.274A3.7,3.7,0,0,0,1.6,16.767a4.081,4.081,0,0,0,1.089.561,3.8,3.8,0,0,0,.605.16,2.517,2.517,0,0,0,.671.019,6.72,6.72,0,0,0,2.241-.674,39.132,39.132,0,0,0,3.817-2.3c1.24-.792,2.509-1.533,3.778-2.288a39.815,39.815,0,0,0,3.7-2.436,35.117,35.117,0,0,0,3.444-2.823A15.255,15.255,0,0,0,22.481,5.3a4.212,4.212,0,0,0,.632-1.117,5.763,5.763,0,0,0,.112-.647,2.966,2.966,0,0,0-.044-.662A3.156,3.156,0,0,0,21.773.889,5.93,5.93,0,0,0,19.691,0l-.036.109A7.5,7.5,0,0,1,21.4,1.341a3.5,3.5,0,0,1,.621.783,2.159,2.159,0,0,1,.254.867,2.043,2.043,0,0,1-.021.433c-.034.143-.085.289-.123.426a3.6,3.6,0,0,1-.526.742,18.977,18.977,0,0,1-1.5,1.492c-2.109,1.96-4.389,3.79-6.658,5.636a26.6,26.6,0,0,1-3.61,2.486,25.919,25.919,0,0,1-3.991,1.737,10,10,0,0,1-1.969.545,1.59,1.59,0,0,1-.425.008,2.9,2.9,0,0,1-.459-.1A3.357,3.357,0,0,1,2.1,16.02,4.383,4.383,0,0,1,.2,12.559Z" transform="translate(74.324 70.128)" fill="#fff"/>
        <path id="Контур_17" data-name="Контур 17" d="M2.992,5.908a10.8,10.8,0,0,0-.756-1.793,16.686,16.686,0,0,0-.97-1.641l-.137.795A19.371,19.371,0,0,0,3.062,1.8,11.742,11.742,0,0,0,4.767,0,11.69,11.69,0,0,0,2.5,1.006,19.377,19.377,0,0,0,.469,2.337L0,2.686l.332.446A16.941,16.941,0,0,0,1.555,4.6,10.738,10.738,0,0,0,2.992,5.908Z" transform="translate(90.41 36.338)" fill="#fff"/>
        <path id="Контур_18" data-name="Контур 18" d="M2.037,2.875A2.382,2.382,0,0,0,1.9,1.9a2.973,2.973,0,0,0-.4-.792A2.918,2.918,0,0,0,.883.459,2.362,2.362,0,0,0,.006,0a2.37,2.37,0,0,0,.14.979,2.928,2.928,0,0,0,.4.792,2.975,2.975,0,0,0,.613.645A2.4,2.4,0,0,0,2.037,2.875Z" transform="translate(96.483 35.756)" fill="#fff"/>
        <path id="Контур_19" data-name="Контур 19" d="M0,1.657a1.816,1.816,0,0,0,.834-.039,1.945,1.945,0,0,0,.649-.3,1.917,1.917,0,0,0,.5-.51A1.794,1.794,0,0,0,2.3.032,1.793,1.793,0,0,0,1.465.07a1.912,1.912,0,0,0-.648.3,1.938,1.938,0,0,0-.5.511A1.789,1.789,0,0,0,0,1.657Z" transform="translate(98.34 32.447)" fill="#fff"/>
        <path id="Контур_20" data-name="Контур 20" d="M26.349,41.959c-2.111-3.571-4.385-7.012-6.8-10.362-1.24-1.652-2.529-3.271-3.716-4.961s-2.258-3.458-3.285-5.25S10.5,17.8,9.437,16.032l-3.11-5.341C4.221,7.15,2.121,3.618.106,0L0,.046A69.976,69.976,0,0,0,5.26,11.309a123.119,123.119,0,0,0,6.757,10.418c1.2,1.687,2.4,3.368,3.505,5.116s2.13,3.549,3.235,5.3,2.326,3.42,3.57,5.072,2.541,3.268,3.928,4.813Z" transform="translate(13.458 39.428)" fill="#fff"/>
      </g>
      <g id="Сгруппировать_5" data-name="Сгруппировать 5" transform="translate(4.505 61.239)">
        <path id="Контур_21" data-name="Контур 21" d="M0,4.115A14.911,14.911,0,0,0,3.136,2.372,14.686,14.686,0,0,0,5.827,0,14.7,14.7,0,0,0,2.691,1.743,14.855,14.855,0,0,0,0,4.115Z" transform="translate(58.385 2.202)" fill="#fff"/>
        <path id="Контур_22" data-name="Контур 22" d="M0,2.868A7.377,7.377,0,0,0,2.253,1.748,7.333,7.333,0,0,0,4.062,0,7.308,7.308,0,0,0,1.808,1.119,7.4,7.4,0,0,0,0,2.868Z" transform="translate(54.004 3.796)" fill="#fff"/>
        <path id="Контур_23" data-name="Контур 23" d="M0,2.18A4.392,4.392,0,0,0,1.766,1.4,4.341,4.341,0,0,0,3.087,0,4.359,4.359,0,0,0,1.321.775,4.4,4.4,0,0,0,0,2.18Z" transform="translate(50.355 4.025)" fill="#fff"/>
        <path id="Контур_24" data-name="Контур 24" d="M0,1.715a2.843,2.843,0,0,0,1.436-.543A2.8,2.8,0,0,0,2.428,0,2.807,2.807,0,0,0,.992.543,2.836,2.836,0,0,0,0,1.715Z" transform="translate(47.132 4.02)" fill="#fff"/>
        <path id="Контур_25" data-name="Контур 25" d="M0,1.724a2.872,2.872,0,0,0,1.443-.547A2.833,2.833,0,0,0,2.442,0,2.834,2.834,0,0,0,1,.548,2.857,2.857,0,0,0,0,1.724Z" transform="translate(44.282 2.842)" fill="#fff"/>
        <path id="Контур_26" data-name="Контур 26" d="M0,6.081A32.2,32.2,0,0,0,4.528,3.355,31.776,31.776,0,0,0,8.612,0,31.775,31.775,0,0,0,4.083,2.726,32.152,32.152,0,0,0,0,6.081Z" transform="translate(7.153 7.937)" fill="#fff"/>
        <path id="Контур_27" data-name="Контур 27" d="M0,3.613A11.526,11.526,0,0,0,2.781,2.121,11.41,11.41,0,0,0,5.116,0,11.415,11.415,0,0,0,2.336,1.492,11.568,11.568,0,0,0,0,3.613Z" transform="translate(5.768 7.625)" fill="#fff"/>
        <path id="Контур_28" data-name="Контур 28" d="M0,2.726A6.689,6.689,0,0,0,2.152,1.677,6.62,6.62,0,0,0,3.86,0,6.638,6.638,0,0,0,1.708,1.048,6.7,6.7,0,0,0,0,2.726Z" transform="translate(3.861 5.811)" fill="#fff"/>
        <path id="Контур_29" data-name="Контур 29" d="M0,1.85A3.254,3.254,0,0,0,1.533,1.24,3.219,3.219,0,0,0,2.62,0,3.22,3.22,0,0,0,1.088.611,3.254,3.254,0,0,0,0,1.85Z" transform="translate(2.487 4.331)" fill="#fff"/>
        <path id="Контур_30" data-name="Контур 30" d="M0,1.5a2.252,2.252,0,0,0,1.284-.436A2.224,2.224,0,0,0,2.125,0,2.224,2.224,0,0,0,.84.436,2.244,2.244,0,0,0,0,1.5Z" transform="translate(1.277 2.355)" fill="#fff"/>
        <path id="Контур_31" data-name="Контур 31" d="M0,1.432a2.068,2.068,0,0,0,1.236-.4A2.052,2.052,0,0,0,2.028,0,2.05,2.05,0,0,0,.792.4,2.077,2.077,0,0,0,0,1.432Z" transform="translate(0 0)" fill="#fff"/>
        <path id="Контур_32" data-name="Контур 32" d="M0,10.9C2.747,9.331,5.359,7.571,7.939,5.765c2.565-1.825,5.1-3.7,7.495-5.765-2.748,1.567-5.361,3.327-7.939,5.135C4.93,6.962,2.4,8.835,0,10.9Z" transform="translate(73.394 15.033)" fill="#fff"/>
        <path id="Контур_33" data-name="Контур 33" d="M0,9.333A75.577,75.577,0,0,0,6.83,4.981,74.578,74.578,0,0,0,13.215,0a74.7,74.7,0,0,0-6.83,4.352A75.289,75.289,0,0,0,0,9.333Z" transform="translate(71.629 15.533)" fill="#fff"/>
        <path id="Контур_34" data-name="Контур 34" d="M0,7.158A44.487,44.487,0,0,0,5.291,3.894,43.9,43.9,0,0,0,10.136,0a44,44,0,0,0-5.29,3.265A44.486,44.486,0,0,0,0,7.158Z" transform="translate(70.414 16.397)" fill="#fff"/>
        <path id="Контур_35" data-name="Контур 35" d="M0,7.085A43.619,43.619,0,0,0,5.238,3.857,43.117,43.117,0,0,0,10.032,0,43.179,43.179,0,0,0,4.793,3.228,43.589,43.589,0,0,0,0,7.085Z" transform="translate(38.482 21.817)" fill="#fff"/>
        <path id="Контур_36" data-name="Контур 36" d="M0,6.951A42.055,42.055,0,0,0,5.143,3.79,41.51,41.51,0,0,0,9.843,0,41.5,41.5,0,0,0,4.7,3.161,41.9,41.9,0,0,0,0,6.951Z" transform="translate(37.308 20.901)" fill="#fff"/>
        <path id="Контур_37" data-name="Контур 37" d="M0,7.357A46.978,46.978,0,0,0,5.432,3.994,46.547,46.547,0,0,0,10.418,0,46.477,46.477,0,0,0,4.987,3.364,47.077,47.077,0,0,0,0,7.357Z" transform="translate(36.711 19.037)" fill="#fff"/>
      </g>
    </g>
  </g>
</svg>
