<svg xmlns="http://www.w3.org/2000/svg" xmlns:xlink="http://www.w3.org/1999/xlink" width="200" height="200" viewBox="0 0 200 200">
  <defs>
    <clipPath id="clip-Контакты">
      <rect width="200" height="200"/>
    </clipPath>
  </defs>
  <g id="Контакты" clip-path="url(#clip-Контакты)">
    <rect width="200" height="200" fill="#fff"/>
    <g id="Сгруппировать_704" data-name="Сгруппировать 704" transform="translate(32.998 17.686)">
      <path id="Контур_5478" data-name="Контур 5478" d="M413.366,308.1c-8.675,2.735-17.276,5.7-25.833,8.789s-17.062,6.34-25.386,10.047c-2.067.959-4.165,1.848-6.2,2.881l-3.07,1.512-3.011,1.633c-1.007.538-2.007,1.091-2.973,1.708s-1.961,1.182-2.922,1.808l-2.808,2.006a4.681,4.681,0,0,0-.736.587,2.916,2.916,0,0,0-.586.894,3.016,3.016,0,0,0-.076,2.095c1.835,4.285,3.687,8.349,5.563,12.52l5.627,12.429c7.571,16.541,15.366,32.979,23.163,49.415,3.934,8.2,7.841,16.414,11.866,24.573l3.043,6.107,3.127,6.067c1.057,2.016,2.167,4,3.248,6.008.527,1.009,1.148,1.97,1.718,2.957l.874,1.471A7.325,7.325,0,0,0,399,465.1a2.743,2.743,0,0,0,1.8.746,2.784,2.784,0,0,0,.979-.144l.813-.3,3.189-1.213,6.369-2.446,12.709-4.968c8.461-3.344,16.9-6.758,25.258-10.358,4.184-1.791,8.349-3.629,12.485-5.546,2.069-.952,4.124-1.944,6.169-2.959a6.224,6.224,0,0,0,.84-.457,3.05,3.05,0,0,0,.779-.789,3.1,3.1,0,0,0,.509-2.12,3.911,3.911,0,0,0-.281-.988l-.309-.8-.616-1.59c-3.288-8.483-6.674-16.924-10.065-25.366-6.775-16.885-13.753-33.689-21.092-50.34-3.712-8.306-7.4-16.623-11.328-24.83-.957-2.063-1.971-4.1-2.958-6.149s-1.975-4.1-3.038-6.109-2.052-4.062-3.206-6.024l-1.68-2.971A2.478,2.478,0,0,0,413.366,308.1Zm.043.135a2.32,2.32,0,0,1,2.772,1.228l1.655,2.979c1.137,1.967,2.123,4.017,3.156,6.041s2.017,4.073,2.989,6.127,1.956,4.1,2.87,6.185c3.771,8.273,7.3,16.656,10.828,25.033q10.458,25.191,20.592,50.516L468.318,431.7l.625,1.586a9.355,9.355,0,0,1,.51,1.435,1.634,1.634,0,0,1-.263,1.124,2.2,2.2,0,0,1-1.067.772c-2.022,1.018-4.058,2.015-6.114,2.973q-6.16,2.893-12.419,5.595-12.5,5.423-25.134,10.571l-12.644,5.11-6.337,2.518-3.173,1.248-.78.3a1.977,1.977,0,0,1-1.987-.408,7.262,7.262,0,0,1-.893-1.327l-.879-1.454c-.575-.977-1.2-1.921-1.733-2.924-1.094-1.989-2.216-3.963-3.287-5.966l-3.171-6.034-3.091-6.078c-2.063-4.05-4.049-8.14-6.062-12.217q-2.977-6.136-5.858-12.318c-7.76-16.449-15.132-33.077-22.538-49.686l-11.1-24.858a1.794,1.794,0,0,1,.033-1.241,2.142,2.142,0,0,1,.936-1l2.724-1.982c.938-.622,1.909-1.2,2.862-1.805s1.931-1.172,2.924-1.714l2.97-1.645,3.025-1.552c2-1.066,4.075-1.992,6.114-2.987A456.449,456.449,0,0,1,413.409,308.236Z" transform="translate(-337.763 -307.981)" fill="#fff"/>
      <path id="Контур_5479" data-name="Контур 5479" d="M342.022,341.068a13.072,13.072,0,0,0-2.943,2.265,1.759,1.759,0,0,0-.147,1.916l.685,1.708,2.765,6.82c1.877,4.532,3.727,9.076,5.645,13.591,3.826,9.035,7.68,18.058,11.685,27.015l12.245,26.768L384.1,447.964l3.075,6.689,3.176,6.645c1.079,2.206,2.211,4.39,3.314,6.587.555,1.1,1.184,2.162,1.777,3.243l.9,1.616a5.253,5.253,0,0,0,.551.878,2.449,2.449,0,0,0,1.026.7,2.509,2.509,0,0,0,1.231.116l.921-.149,1.829-.337c1.211-.251,2.419-.513,3.617-.81,2.4-.576,4.772-1.246,7.135-1.945,4.725-1.4,9.347-3.1,13.943-4.851,9.188-3.517,18.147-7.583,26.955-11.929q6.6-3.275,13.079-6.774l3.242-1.742a5.446,5.446,0,0,0,2.546-6.573,22.327,22.327,0,0,0-1.369-3.43l-.128.059a22.047,22.047,0,0,1,1.214,3.449,5.07,5.07,0,0,1-.186,3.479,4.97,4.97,0,0,1-2.355,2.486l-3.293,1.635c-4.373,2.217-8.806,4.309-13.23,6.412-8.865,4.174-17.865,8.049-27,11.563-4.571,1.741-9.188,3.357-13.853,4.8-2.334.715-4.677,1.4-7.041,1.993-1.18.3-2.367.574-3.555.833l-1.785.347-.893.153a1.161,1.161,0,0,1-.582-.046c-.4-.139-.564-.382-.895-1l-.906-1.588c-.595-1.064-1.224-2.106-1.8-3.187-1.135-2.168-2.3-4.32-3.412-6.5l-3.31-6.563-3.244-6.6c-4.283-8.821-8.453-17.7-12.4-26.683l-2.968-6.732-2.891-6.765-5.759-13.541-5.848-13.5-5.914-13.473-5.959-13.454-3.006-6.717-.754-1.678a1.392,1.392,0,0,1,.032-1.551,13.4,13.4,0,0,1,2.757-2.349Z" transform="translate(-338.717 -309.845)" fill="#fff"/>
      <path id="Контур_5480" data-name="Контур 5480" d="M417.663,474.508a2.11,2.11,0,0,0-1.188,1.438,6.81,6.81,0,0,1-.024.966,1.587,1.587,0,0,1-.5.759,3.1,3.1,0,0,0-.614.711,3.685,3.685,0,0,0-.435.788,3.429,3.429,0,0,0-.082,1.917l.129.057a3.435,3.435,0,0,0,1.34-1.373,3.682,3.682,0,0,0,.276-.857,3.047,3.047,0,0,0,.1-.934,1.59,1.59,0,0,1,.209-.885c.158-.257.485-.441.688-.678a2.108,2.108,0,0,0,.234-1.851Z" transform="translate(-355.616 -317.363)" fill="#fff"/>
      <path id="Контур_5481" data-name="Контур 5481" d="M469.289,315.016q-9.727,3.629-19.063,8.131c-3.1,1.533-6.146,3.165-9.258,4.662s-6.282,2.868-9.463,4.217q-4.782,2-9.5,4.144c-3.144,1.429-6.291,2.854-9.4,4.367s-6.18,3.094-9.233,4.72-6.074,3.324-8.975,5.217l.071.123,18.79-8.7c6.219-2.991,12.43-6,18.573-9.169,3.077-1.569,6.176-3.093,9.328-4.5s6.378-2.658,9.557-4.007q9.485-4.164,18.63-9.073Z" transform="translate(-387.888 -308.377)" fill="#fff"/>
      <path id="Контур_5482" data-name="Контур 5482" d="M446.617,321.956a3.492,3.492,0,0,1,.885,1.463,2.042,2.042,0,0,1,.08.843c-.085.289-.4.363-.657.489l-3.166,1.4-6.378,2.707L431,331.568l-3.166,1.4-1.574.722-.786.361-.08.036.022-.008a.118.118,0,0,1,.048,0,.143.143,0,0,1,.1.055,8.918,8.918,0,0,1-.79-1.36c-.053-.119-.1-.238-.148-.357-.027-.076,0,.021-.017.024a.118.118,0,0,1-.058.065l.349-.165,3.111-1.519,6.177-3.14,6.176-3.141,3.111-1.52,1.566-.74.782-.369A.624.624,0,0,1,446.617,321.956Zm0,0a.632.632,0,0,0-.8-.057l-.788.358-1.577.715-3.173,1.389-6.391,2.676-6.39,2.677-3.172,1.39-.436.2a1.26,1.26,0,0,0-.594.717,1.311,1.311,0,0,0,.03.87c.054.153.115.3.177.445a9.6,9.6,0,0,0,.927,1.641,1.261,1.261,0,0,0,.818.49,1.281,1.281,0,0,0,.479-.018,1.2,1.2,0,0,0,.226-.075l.117-.055.78-.373,1.562-.746,3.1-1.535,6.162-3.169,6.163-3.167,3.1-1.533c.242-.126.581-.21.672-.526a2.033,2.033,0,0,0-.092-.863A3.5,3.5,0,0,0,446.617,321.956Z" transform="translate(-393.39 -308.758)" fill="#fff"/>
      <path id="Контур_5483" data-name="Контур 5483" d="M422.636,389.325a62.98,62.98,0,0,0,5.933-12.309,53.985,53.985,0,0,0,1.939-6.582,13.415,13.415,0,0,0-.186-7.008,8.658,8.658,0,0,0-1.805-3.1,7.005,7.005,0,0,0-3.013-1.912,5.687,5.687,0,0,0-3.531.008,7.746,7.746,0,0,0-2.91,1.9,14.765,14.765,0,0,0-3.394,5.937,18.24,18.24,0,0,0-.878,6.827l.727-.372a14.174,14.174,0,0,0-12.2-3.769,5.815,5.815,0,0,0-3.07,1.754,8.052,8.052,0,0,0-1.639,3.055,9.8,9.8,0,0,0,.543,6.7,9.308,9.308,0,0,0,1.968,2.8,10.163,10.163,0,0,0,2.819,1.862,38.816,38.816,0,0,0,6.132,2C414.241,388.128,418.374,388.671,422.636,389.325Zm-.059-.129c-4-1.12-8.228-1.908-12.219-3.123a37.941,37.941,0,0,1-5.831-2.148,9.744,9.744,0,0,1-2.4-1.687,7.842,7.842,0,0,1-1.612-2.387,8.589,8.589,0,0,1-.46-5.678,6.629,6.629,0,0,1,1.271-2.521,4.415,4.415,0,0,1,2.324-1.378,12.106,12.106,0,0,1,5.92.264,15.4,15.4,0,0,1,5.372,2.849l.858.693-.132-1.065a17.017,17.017,0,0,1,.506-6.594,13.506,13.506,0,0,1,3.2-5.777,6.648,6.648,0,0,1,2.758-1.714,4.813,4.813,0,0,1,3.138.167,6.7,6.7,0,0,1,3.969,4.665,13.884,13.884,0,0,1,.029,6.424,66.1,66.1,0,0,1-1.753,6.474A102.827,102.827,0,0,1,422.577,389.2Z" transform="translate(-353.061 -310.807)" fill="#fff"/>
      <path id="Контур_5484" data-name="Контур 5484" d="M423.017,347.907a3.967,3.967,0,0,0,.12,1.432,5.5,5.5,0,0,0,.468,1.251,5.4,5.4,0,0,0,.747,1.108,3.943,3.943,0,0,0,1.1.927,3.927,3.927,0,0,0-.117-1.432,5.712,5.712,0,0,0-1.219-2.358A3.963,3.963,0,0,0,423.017,347.907Z" transform="translate(-370.999 -310.23)" fill="#fff"/>
      <path id="Контур_5485" data-name="Контур 5485" d="M386.615,387.178a9.99,9.99,0,0,0-2.18-.872,16.756,16.756,0,0,0-4.519-.657,9.953,9.953,0,0,0-2.338.219,9.909,9.909,0,0,0,2.18.874,16.752,16.752,0,0,0,4.519.653A10.1,10.1,0,0,0,386.615,387.178Z" transform="translate(-289.282 -312.357)" fill="#fff"/>
      <path id="Контур_5486" data-name="Контур 5486" d="M395.761,401.9a5.015,5.015,0,0,0,.092,1.631,7.276,7.276,0,0,0,.453,1.479,7.194,7.194,0,0,0,.742,1.356,4.968,4.968,0,0,0,1.107,1.2,4.992,4.992,0,0,0-.09-1.632,7.2,7.2,0,0,0-.456-1.478,7.328,7.328,0,0,0-.743-1.355A5.035,5.035,0,0,0,395.761,401.9Z" transform="translate(-317.982 -313.272)" fill="#fff"/>
      <path id="Контур_5487" data-name="Контур 5487" d="M424.014,402.654a8.95,8.95,0,0,0-.949,2,14.047,14.047,0,0,0-.562,2.072,13.7,13.7,0,0,0-.256,2.132,8.832,8.832,0,0,0,.133,2.207,8.87,8.87,0,0,0,.951-2,13.856,13.856,0,0,0,.56-2.072,14.1,14.1,0,0,0,.254-2.133A8.962,8.962,0,0,0,424.014,402.654Z" transform="translate(-368.964 -313.315)" fill="#fff"/>
      <path id="Контур_5488" data-name="Контур 5488" d="M441.852,389.524a5.511,5.511,0,0,0-1.684.317,8.1,8.1,0,0,0-1.492.659,8,8,0,0,0-1.338.931,5.447,5.447,0,0,0-1.144,1.278,5.425,5.425,0,0,0,1.685-.315,8.005,8.005,0,0,0,1.491-.661,8.159,8.159,0,0,0,1.337-.933A5.516,5.516,0,0,0,441.852,389.524Z" transform="translate(-399.833 -312.575)" fill="#fff"/>
      <path id="Контур_5489" data-name="Контур 5489" d="M449.12,368.861a11.044,11.044,0,0,0-2.216-1.086,18.555,18.555,0,0,0-4.682-1.1,10.945,10.945,0,0,0-2.468-.013,10.865,10.865,0,0,0,2.215,1.088,17.289,17.289,0,0,0,2.306.7,17.578,17.578,0,0,0,2.377.4A11.1,11.1,0,0,0,449.12,368.861Z" transform="translate(-410.459 -311.283)" fill="#fff"/>
      <path id="Контур_5490" data-name="Контур 5490" d="M388.448,357.292a11.22,11.22,0,0,0-2.2,1.162,18,18,0,0,0-1.942,1.461,17.66,17.66,0,0,0-1.738,1.7,11.035,11.035,0,0,0-1.48,2,11.123,11.123,0,0,0,2.2-1.161,17.887,17.887,0,0,0,1.941-1.462,18.1,18.1,0,0,0,1.737-1.7A11.306,11.306,0,0,0,388.448,357.292Z" transform="translate(-294.428 -310.759)" fill="#fff"/>
      <path id="Контур_5491" data-name="Контур 5491" d="M399.091,338.937a10.411,10.411,0,0,0-.985,2.183,17.455,17.455,0,0,0-.894,4.574,10.3,10.3,0,0,0,.1,2.393,10.3,10.3,0,0,0,.988-2.182,17.4,17.4,0,0,0,.889-4.575A10.454,10.454,0,0,0,399.091,338.937Z" transform="translate(-320.38 -309.725)" fill="#fff"/>
      <path id="Контур_5492" data-name="Контур 5492" d="M428.672,405.249a197.833,197.833,0,0,0-18.951,7.158c-3.076,1.395-6.113,2.88-9.2,4.254-3.093,1.35-6.219,2.623-9.367,3.852s-6.283,2.487-9.371,3.855q-4.656,2-9.242,4.166c-3.036,1.49-6.044,3.038-9,4.7a70.38,70.38,0,0,0-8.532,5.515l.081.116c2.94-1.667,5.92-3.207,8.964-4.65,3.017-1.491,6.092-2.867,9.133-4.313,6.087-2.888,12.2-5.721,18.275-8.675,3.048-1.449,6.112-2.866,9.237-4.139s6.319-2.383,9.47-3.589q9.412-3.723,18.551-8.114Z" transform="translate(-310.098 -313.461)" fill="#fff"/>
      <path id="Контур_5493" data-name="Контур 5493" d="M419.2,426.441c-6.331,1.978-12.536,4.285-18.627,6.877-3.029,1.333-6.014,2.777-9.053,4.081s-6.129,2.491-9.228,3.66q-9.307,3.471-18.382,7.528c-3.018,1.366-5.99,2.834-8.935,4.365-1.473.763-2.928,1.561-4.355,2.419-.713.428-1.437.828-2.122,1.308l-2.031,1.452.082.115,2.18-1.173c.721-.392,1.5-.7,2.23-1.071,1.471-.739,3-1.37,4.5-2.056s3.014-1.344,4.53-2l4.539-1.984,9.041-4.063c3.024-1.334,6.021-2.733,9.022-4.128s6.023-2.74,9.1-3.949,6.218-2.269,9.321-3.413q9.26-3.561,18.236-7.839Z" transform="translate(-292.566 -314.655)" fill="#fff"/>
      <path id="Контур_5494" data-name="Контур 5494" d="M376.483,454.2a6.077,6.077,0,0,0,2.65,2.7,4.223,4.223,0,0,0,3.961-.2,5.265,5.265,0,0,0,2.251-3.177,5.947,5.947,0,0,0-.173-3.8,4.758,4.758,0,0,0-2.865-2.759,5.092,5.092,0,0,0-4.1.261,4.567,4.567,0,0,0-2.4,3.253A6,6,0,0,0,376.483,454.2Zm.126-.064a3.676,3.676,0,0,1,.082-3.38,5.11,5.11,0,0,1,2.2-2.194,4.3,4.3,0,0,1,3.006-.335,4.672,4.672,0,0,1,2.582,1.846,3.7,3.7,0,0,1,.424,3.307,4.058,4.058,0,0,1-2.353,2.27,5.98,5.98,0,0,1-3.147.392A3.647,3.647,0,0,1,376.609,454.141Z" transform="translate(-286.502 -315.794)" fill="#fff"/>
      <path id="Контур_5495" data-name="Контур 5495" d="M380.147,434a8.774,8.774,0,0,0,4.306,4.092,6.946,6.946,0,0,0,6.119-.379,8.139,8.139,0,0,0,3.649-4.832,8.721,8.721,0,0,0-.354-5.96,7.628,7.628,0,0,0-4.52-4.158,7.925,7.925,0,0,0-6.261.443,7.368,7.368,0,0,0-3.8,4.908A8.776,8.776,0,0,0,380.147,434Zm.125-.065a6.453,6.453,0,0,1-.1-5.538,7.85,7.85,0,0,1,3.6-3.849,7.124,7.124,0,0,1,5.165-.516,7.429,7.429,0,0,1,4.236,3.244,6.485,6.485,0,0,1,.6,5.466,6.875,6.875,0,0,1-3.752,3.925,8.6,8.6,0,0,1-5.307.579A6.462,6.462,0,0,1,380.272,433.938Z" transform="translate(-298.688 -314.423)" fill="#fff"/>
      <path id="Контур_5496" data-name="Контур 5496" d="M399.2,440.257a4.978,4.978,0,0,0,1.96,2.117,3.076,3.076,0,0,0,3.061-.129,4.092,4.092,0,0,0,1.666-2.488,4.847,4.847,0,0,0-.1-2.9,3.6,3.6,0,0,0-2.175-2.178,3.909,3.909,0,0,0-3.2.188,3.409,3.409,0,0,0-1.817,2.564A4.883,4.883,0,0,0,399.2,440.257Zm.126-.065a2.541,2.541,0,0,1,.159-2.48,4.032,4.032,0,0,1,1.622-1.5,3.13,3.13,0,0,1,2.1-.258,3.469,3.469,0,0,1,1.893,1.26,2.549,2.549,0,0,1,.349,2.407,2.862,2.862,0,0,1-1.771,1.58,5.363,5.363,0,0,1-2.247.316A2.516,2.516,0,0,1,399.326,440.191Z" transform="translate(-328.538 -315.105)" fill="#fff"/>
      <path id="Контур_5497" data-name="Контур 5497" d="M411.53,446.619a4.976,4.976,0,0,0,1.96,2.116,3.073,3.073,0,0,0,3.061-.128,4.1,4.1,0,0,0,1.667-2.488,4.845,4.845,0,0,0-.1-2.9,3.61,3.61,0,0,0-2.175-2.179,3.909,3.909,0,0,0-3.2.188,3.411,3.411,0,0,0-1.817,2.565A4.878,4.878,0,0,0,411.53,446.619Zm.126-.065a2.543,2.543,0,0,1,.158-2.48,4.053,4.053,0,0,1,1.622-1.5,3.133,3.133,0,0,1,2.1-.257,3.465,3.465,0,0,1,1.893,1.26,2.548,2.548,0,0,1,.349,2.406,2.86,2.86,0,0,1-1.771,1.58,5.363,5.363,0,0,1-2.247.317A2.517,2.517,0,0,1,411.656,446.554Z" transform="translate(-352.503 -315.463)" fill="#fff"/>
      <path id="Контур_5498" data-name="Контур 5498" d="M354.619,420.673a4.984,4.984,0,0,0,1.719,2.316,3.075,3.075,0,0,0,3.057.2,4.1,4.1,0,0,0,1.926-2.294,4.85,4.85,0,0,0,.219-2.894,3.612,3.612,0,0,0-1.927-2.4,3.911,3.911,0,0,0-3.206-.159,3.407,3.407,0,0,0-2.083,2.353A4.871,4.871,0,0,0,354.619,420.673Zm.132-.051a2.543,2.543,0,0,1,.426-2.448,4.044,4.044,0,0,1,1.775-1.32,3.13,3.13,0,0,1,2.119-.027,3.459,3.459,0,0,1,1.746,1.457,2.55,2.55,0,0,1,.088,2.43,2.865,2.865,0,0,1-1.933,1.38,5.377,5.377,0,0,1-2.268.072A2.52,2.52,0,0,1,354.751,420.622Z" transform="translate(-242.293 -314.02)" fill="#fff"/>
      <path id="Контур_5499" data-name="Контур 5499" d="M367.565,425.665a4.979,4.979,0,0,0,1.72,2.316,3.073,3.073,0,0,0,3.056.2,4.1,4.1,0,0,0,1.926-2.294,4.85,4.85,0,0,0,.219-2.894,3.611,3.611,0,0,0-1.927-2.4,3.914,3.914,0,0,0-3.206-.159,3.41,3.41,0,0,0-2.083,2.353A4.871,4.871,0,0,0,367.565,425.665Zm.132-.051a2.543,2.543,0,0,1,.426-2.448,4.045,4.045,0,0,1,1.775-1.32,3.136,3.136,0,0,1,2.119-.028,3.469,3.469,0,0,1,1.746,1.457,2.552,2.552,0,0,1,.088,2.431,2.865,2.865,0,0,1-1.933,1.38,5.378,5.378,0,0,1-2.268.072A2.52,2.52,0,0,1,367.7,425.614Z" transform="translate(-267.455 -314.302)" fill="#fff"/>
    </g>
  </g>
</svg>
