<svg xmlns="http://www.w3.org/2000/svg" xmlns:xlink="http://www.w3.org/1999/xlink" width="200" height="200" viewBox="0 0 200 200">
  <defs>
    <clipPath id="clip-Цена">
      <rect width="200" height="200"/>
    </clipPath>
  </defs>
  <g id="Цена" clip-path="url(#clip-Цена)">
    <g id="Сгруппировать_703" data-name="Сгруппировать 703" transform="translate(-499.62 51.126)">
      <g id="Сгруппировать_675" data-name="Сгруппировать 675" transform="translate(4 8)">
        <path id="Контур_5659" data-name="Контур 5659" d="M619.42-9.2a21.114,21.114,0,0,1-4.745,8.651A24.207,24.207,0,0,1,606.6,5.283a29.371,29.371,0,0,1-19.763,1.283,32.511,32.511,0,0,1-9.089-4.233A30.8,30.8,0,0,1,570.49-4.5a25.35,25.35,0,0,1-4.344-8.934,20.817,20.817,0,0,1-.075-9.967,20.141,20.141,0,0,1,4.779-8.839,23.965,23.965,0,0,1,8.279-5.777,30.611,30.611,0,0,1,19.893-1.213,29.823,29.823,0,0,1,16.49,11.071C619.453-22.746,621.217-15.645,619.42-9.2Zm-.145-.039a19.389,19.389,0,0,0-.064-9.733,23.2,23.2,0,0,0-4.483-8.586,31.434,31.434,0,0,0-16.1-10.176,30.538,30.538,0,0,0-18.949,1.019,23.627,23.627,0,0,0-7.958,5.291,19.771,19.771,0,0,0-4.852,8.235,19.1,19.1,0,0,0-.206,9.634A22.329,22.329,0,0,0,570.9-4.816,26.667,26.667,0,0,0,578.2,1.63a32.484,32.484,0,0,0,8.957,3.735,31.993,31.993,0,0,0,19.079-.95A23.351,23.351,0,0,0,614.39-.819,18.884,18.884,0,0,0,619.275-9.241Z" fill="#fff" stroke="rgba(255,255,255,0)" stroke-width="1"/>
        <path id="Контур_5660" data-name="Контур 5660" d="M617.969-5.908a19.331,19.331,0,0,1-.538,3.6,18.888,18.888,0,0,1-4.885,8.422,23.352,23.352,0,0,1-8.159,5.234,31.986,31.986,0,0,1-19.079.95,32.454,32.454,0,0,1-8.957-3.735,26.666,26.666,0,0,1-7.293-6.446,22.329,22.329,0,0,1-4.243-8.741,19.1,19.1,0,0,1,.206-9.634,17.949,17.949,0,0,1,.908-2.43,3,3,0,0,1-.478-1.2V-19.9a18.964,18.964,0,0,0-1.224,3.427,20.822,20.822,0,0,0,.075,9.968,25.366,25.366,0,0,0,4.344,8.934A30.8,30.8,0,0,0,575.9,9.261a32.518,32.518,0,0,0,9.088,4.233,29.374,29.374,0,0,0,19.764-1.283,24.2,24.2,0,0,0,8.079-5.833,21.124,21.124,0,0,0,4.745-8.652,19.19,19.19,0,0,0,.673-4.391A3.648,3.648,0,0,1,617.969-5.908Z" fill="#fff" stroke="rgba(255,255,255,0)" stroke-width="1"/>
        <path id="Контур_5661" data-name="Контур 5661" d="M566.468-23.3a11.745,11.745,0,0,1-.439,3.593,11.632,11.632,0,0,1-1.4,3.335,11.612,11.612,0,0,1,.439-3.592A11.776,11.776,0,0,1,566.468-23.3Z" fill="#fff" stroke="rgba(255,255,255,0)" stroke-width="1"/>
        <path id="Контур_5662" data-name="Контур 5662" d="M619.348-9.222a23.472,23.472,0,0,1-.681,3.529,23.236,23.236,0,0,1-1.163,3.4,23.173,23.173,0,0,1,.68-3.529A23.349,23.349,0,0,1,619.348-9.222Z" fill="#fff" stroke="rgba(255,255,255,0)" stroke-width="1"/>
        <path id="Контур_5663" data-name="Контур 5663" d="M585.661-26.436c.542.938,1.026,1.9,1.5,2.865s.969,1.919,1.4,2.906.856,1.975,1.333,2.941c.122.239.24.481.367.718s.264.469.4.7c.272.464.557.92.842,1.376s.6.893.89,1.344.574.908.889,1.341l.915,1.32c.324.425.638.857.954,1.287s.661.836.983,1.262c.17.2.347.4.52.605s.342.409.531.595.361.391.553.575.385.365.585.539a5.256,5.256,0,0,0,1.317.875l-.01.057a1.892,1.892,0,0,1-.4-.116,2.879,2.879,0,0,1-.375-.169,6.556,6.556,0,0,1-.711-.415c-.227-.153-.44-.324-.659-.489s-.413-.356-.618-.538-.4-.373-.588-.569-.381-.391-.566-.59-.353-.414-.528-.622-.357-.412-.518-.63c-.322-.437-.646-.873-.96-1.316l-.879-1.367c-.3-.45-.558-.927-.827-1.4l-.394-.709-.194-.355-.183-.362c-.243-.483-.485-.965-.741-1.44l-.386-.711c-.121-.24-.252-.476-.377-.714-.506-.951-1.107-1.856-1.595-2.819a43.1,43.1,0,0,1-2.526-5.957Z" fill="#fff" stroke="rgba(255,255,255,0)" stroke-miterlimit="10" stroke-width="0.25"/>
        <path id="Контур_5664" data-name="Контур 5664" d="M589-8.67c2.159-2.555,4.273-5.133,6.224-7.826.493-.669.973-1.348,1.422-2.048a17.342,17.342,0,0,0,1.216-2.175,9,9,0,0,0,.741-2.362c.025-.2.049-.409.059-.614a5.494,5.494,0,0,0-.007-.615,4.921,4.921,0,0,0-.212-1.2,3.766,3.766,0,0,0-.529-1.068l-.183-.232c-.065-.073-.138-.138-.206-.208a1.424,1.424,0,0,0-.221-.19,1.7,1.7,0,0,0-.236-.17,3.41,3.41,0,0,0-1.078-.434,4.784,4.784,0,0,0-1.179-.078,7.986,7.986,0,0,0-2.349.536,15.908,15.908,0,0,0-2.219,1.047,33.051,33.051,0,0,0-4.108,2.783c-1.315,1.018-2.574,2.113-3.83,3.219l-.04-.041a42.612,42.612,0,0,1,3.586-3.525,26.741,26.741,0,0,1,4.094-2.965,14.247,14.247,0,0,1,2.315-1.076,8.526,8.526,0,0,1,2.531-.513,4.972,4.972,0,0,1,1.312.124,3.861,3.861,0,0,1,1.215.547,3.36,3.36,0,0,1,.918.957,4.146,4.146,0,0,1,.507,1.2,6.208,6.208,0,0,1,.051,2.542,11.131,11.131,0,0,1-.763,2.407,29.134,29.134,0,0,1-2.418,4.419c-.466.7-.963,1.377-1.482,2.037s-1.051,1.308-1.6,1.94a45.817,45.817,0,0,1-3.488,3.618Z" fill="#fff" stroke="rgba(255,255,255,0)" stroke-miterlimit="10" stroke-width="0.25"/>
        <path id="Контур_5665" data-name="Контур 5665" d="M592.171-7.467a4.807,4.807,0,0,1,.4-.926,3.78,3.78,0,0,1,.262-.424,3.217,3.217,0,0,1,.309-.391c.222-.248.5-.449.726-.693a6.838,6.838,0,0,0,.6-.8,5.191,5.191,0,0,1,.619-.8,5.229,5.229,0,0,1,.765-.68,3.251,3.251,0,0,1,.944-.456c.088-.022.175-.043.263-.057a2.272,2.272,0,0,1,.272-.018.891.891,0,0,1,.522.152l-.027.05a1.668,1.668,0,0,0-.86.289,1.669,1.669,0,0,0-.194.124,1.673,1.673,0,0,0-.191.128c-.122.1-.254.175-.373.281s-.252.185-.376.285-.249.2-.377.3-.242.212-.371.312c-.063.05-.128.1-.2.148l-.19.155a3.363,3.363,0,0,0-.687.7,8.109,8.109,0,0,0-.488.862,6.484,6.484,0,0,1-.587.784,4.915,4.915,0,0,1-.715.7Z" fill="#fff" stroke="rgba(255,255,255,0)" stroke-miterlimit="10" stroke-width="0.25"/>
        <path id="Контур_5666" data-name="Контур 5666" d="M616.116-10.777a19.251,19.251,0,0,1-11.2,12.446,25.962,25.962,0,0,1-17.065,1.054,27.048,27.048,0,0,1-14.2-9.462,21.43,21.43,0,0,1-3.76-7.735,17.774,17.774,0,0,1-.013-8.609,17.607,17.607,0,0,1,4.177-7.57,20.643,20.643,0,0,1,7.135-4.941,26.6,26.6,0,0,1,17.13-1.02A26.2,26.2,0,0,1,612.6-27.149C616.063-22.528,617.663-16.381,616.116-10.777Zm-.073-.02a17.074,17.074,0,0,0-.008-8.491,20.405,20.405,0,0,0-3.829-7.562,27.006,27.006,0,0,0-14.079-9.017,26.571,26.571,0,0,0-16.658.923,20.741,20.741,0,0,0-6.989,4.686,17.118,17.118,0,0,0-4.2,7.281,16.937,16.937,0,0,0-.127,8.442,19.944,19.944,0,0,0,3.71,7.639,26.11,26.11,0,0,0,14.152,9.019,27.259,27.259,0,0,0,16.722-.888,20.462,20.462,0,0,0,7.082-4.663A17.059,17.059,0,0,0,616.043-10.8Z" fill="#fff" stroke="rgba(255,255,255,0)" stroke-width="1"/>
      </g>
      <g id="Сгруппировать_677" data-name="Сгруппировать 677" transform="matrix(0.978, 0.208, -0.208, 0.978, 48.287, -121.328)">
        <g id="Сгруппировать_674" data-name="Сгруппировать 674" transform="translate(537.493 -3.356)">
          <path id="Контур_5644" data-name="Контур 5644" d="M591.481,113.236l19.778-12.961c6.55-4.378,13.169-8.645,19.7-13.048a213.814,213.814,0,0,0,18.9-14.169c1.5-1.278,3.01-2.538,4.443-3.886l2.177-1.989c.727-.66,1.4-1.375,2.112-2.052l2.1-2.063,1.986-2.162.994-1.078c.328-.362.615-.756.925-1.131l1.825-2.278-.044.675c-2.24-3.979-4.546-7.924-6.764-11.917L652.89,33.242l-6.7-11.953c-2.247-3.977-4.466-7.971-6.741-11.934l.112-.069q3.785,5.719,7.357,11.575c2.414,3.884,4.716,7.832,7.055,11.76s4.569,7.917,6.84,11.883,4.454,7.981,6.662,11.984l.2.363-.244.312c-4.937,6.312-11.03,11.434-17.19,16.355-1.534,1.242-3.11,2.428-4.668,3.64s-3.138,2.391-4.717,3.571c-1.565,1.2-3.137,2.391-4.734,3.549s-3.148,2.378-4.753,3.525c-6.35,4.686-12.831,9.2-19.523,13.382-3.326,2.121-6.671,4.212-10.062,6.227q-5.064,3.059-10.236,5.937Z" transform="translate(-544.327 1.756)" fill="#fff" stroke="rgba(255,255,255,0)" stroke-width="1"/>
          <path id="Контур_5645" data-name="Контур 5645" d="M566.236,122.7l1.976,3.347c.676,1.1,1.332,2.218,2.027,3.308s1.406,2.168,2.113,3.247,1.463,2.128,2.184,3.2l-.567-.122c2.941-1.79,5.914-3.527,8.9-5.248,3-1.692,6-3.391,9.056-4.98-2.851,1.942-5.767,3.774-8.678,5.613-2.929,1.809-5.868,3.6-8.838,5.345l-.346.2-.222-.326c-1.462-2.15-2.857-4.347-4.115-6.622-.63-1.136-1.261-2.271-1.835-3.436S566.746,123.893,566.236,122.7Z" transform="translate(-541.131 -12.601)" fill="#fff" stroke="rgba(255,255,255,0)" stroke-width="1"/>
          <path id="Контур_5646" data-name="Контур 5646" d="M616.437,6.352q-4.84,3.508-9.74,6.924c-3.251,2.3-6.531,4.556-9.81,6.813-6.517,4.576-13.169,8.95-19.807,13.351-3.326,2.19-6.6,4.458-9.87,6.725-3.239,2.315-6.487,4.618-9.664,7.017-6.369,4.777-12.692,9.618-18.869,14.606l.167-.769c2.065,4.055,4.187,8.083,6.228,12.152l6.2,12.17L563.636,109.7l-.114.064q-3.507-5.867-6.825-11.843c-2.24-3.968-4.367-8-6.53-12.006s-4.219-8.074-6.314-12.118-4.106-8.131-6.132-12.212l-.227-.457.394-.314c6.251-4.974,12.768-9.566,19.305-14.12l9.788-6.852c3.233-2.325,6.493-4.612,9.7-6.971,6.449-4.678,12.936-9.3,19.595-13.677,3.308-2.218,6.627-4.42,9.981-6.567q5.009-3.257,10.1-6.382Z" transform="translate(-537.493 2.141)" fill="#fff" stroke="rgba(255,255,255,0)" stroke-width="1"/>
          <path id="Контур_5647" data-name="Контур 5647" d="M582.31,111.978,602.452,98.9c6.651-4.448,13.388-8.762,20.026-13.236q4.982-3.349,9.814-6.914c1.616-1.181,3.2-2.408,4.772-3.641s3.158-2.457,4.685-3.75a239.138,239.138,0,0,0,17.771-16.064l-.1.744-13.466-24L639.2,20.045l-3.426-5.965c-1.146-1.986-2.316-3.957-3.529-5.905l.108-.073c2.668,3.742,5.157,7.608,7.57,11.515,2.439,3.893,4.763,7.853,7.1,11.8s4.578,7.959,6.845,11.951,4.448,8.03,6.644,12.064l.226.415-.331.33a188.663,188.663,0,0,1-18.287,15.651c-1.574,1.241-3.19,2.425-4.781,3.643s-3.195,2.416-4.813,3.6c-3.187,2.428-6.443,4.762-9.651,7.163-6.454,4.754-13.043,9.329-19.84,13.577l-5.089,3.2c-1.7,1.059-3.431,2.07-5.144,3.108-3.44,2.053-6.912,4.055-10.429,5.974Z" transform="translate(-543.166 1.906)" fill="#fff" stroke="rgba(255,255,255,0)" stroke-width="1"/>
          <path id="Контур_5648" data-name="Контур 5648" d="M622.408,7.248c-6.558,4.592-13.073,9.235-19.653,13.788-6.526,4.63-13.178,9.077-19.828,13.531q-9.992,6.657-19.607,13.848c-3.215,2.381-6.4,4.806-9.578,7.231q-4.79,3.612-9.468,7.344l.156-.79c2.256,4.044,4.567,8.059,6.786,12.124s4.5,8.093,6.71,12.165l13.258,24.423-.113.066q-3.725-5.871-7.243-11.867c-2.379-3.977-4.667-8-6.989-12.014s-4.55-8.07-6.821-12.108-4.459-8.12-6.681-12.186l-.256-.467.413-.322c6.331-4.944,12.909-9.5,19.479-14.081,3.292-2.278,6.552-4.6,9.825-6.9,3.246-2.342,6.507-4.661,9.726-7.041,6.458-4.731,12.952-9.415,19.62-13.847,3.313-2.246,6.64-4.473,10.007-6.638,3.357-2.183,6.74-4.327,10.188-6.367Z" transform="translate(-538.2 2.028)" fill="#fff" stroke="rgba(255,255,255,0)" stroke-width="1"/>
          <path id="Контур_5649" data-name="Контур 5649" d="M566.606,110.693l2.531,4.121c.756,1.418,1.555,2.811,2.369,4.2s1.678,2.739,2.551,4.088l2.611,4.05-.439-.1,7.9-4.777,3.955-2.383c1.372-.7,2.732-1.429,4.116-2.114-1.25.907-2.523,1.774-3.785,2.662l-3.947,2.395-7.9,4.776-.273.165-.168-.26-2.624-4.068c-.878-1.355-1.759-2.707-2.564-4.107-.821-1.389-1.607-2.8-2.391-4.209C567.871,113.666,567.2,112.194,566.606,110.693Z" transform="translate(-541.178 -11.081)" fill="#fff" stroke="rgba(255,255,255,0)" stroke-width="1"/>
          <path id="Контур_5650" data-name="Контур 5650" d="M648.443,19.392l-3.438-5.383c-1.149-1.794-2.255-3.615-3.385-5.421-1.081-1.835-2.122-3.695-3.151-5.56l-3.091-5.6.6.147c-2.4,1.7-4.809,3.4-7.238,5.059l-7.268,5.016c-4.875,3.3-9.749,6.6-14.7,9.8,4.709-3.539,9.49-6.974,14.271-10.411l7.215-5.091c2.4-1.707,4.819-3.381,7.244-5.049l.38-.261.22.408,3.025,5.613c1.026,1.861,1.97,3.769,3,5.627,1.059,1.844,2.141,3.674,3.182,5.53Z" transform="translate(-546.264 3.356)" fill="#fff" stroke="rgba(255,255,255,0)" stroke-width="1"/>
          <path id="Контур_5651" data-name="Контур 5651" d="M644.459,22.064c-.952-1.418-1.869-2.855-2.8-4.284-.473-.709-.92-1.434-1.329-2.18l-1.282-2.209c-.845-1.478-1.762-2.913-2.639-4.371l-2.66-4.359.461.1L621.73,13.208l-6.239,4.224c-1.02.735-2.124,1.344-3.191,2.008l-3.232,1.946,3.007-2.279c1.012-.744,1.988-1.543,3.048-2.218l6.24-4.224,12.478-8.449.285-.192.177.29,2.664,4.365c.879,1.46,1.8,2.9,2.643,4.378l1.284,2.211c.445.728.853,1.476,1.235,2.24C642.908,19.027,643.7,20.537,644.459,22.064Z" transform="translate(-546.553 2.422)" fill="#fff" stroke="rgba(255,255,255,0)" stroke-width="1"/>
          <g id="Сгруппировать_679" data-name="Сгруппировать 679" transform="translate(2.687 5.384)">
            <path id="Контур_5652" data-name="Контур 5652" d="M591.9,49.037c.742,1.287,1.407,2.6,2.056,3.928.632,1.331,1.329,2.631,1.918,3.983s1.173,2.709,1.827,4.032c.168.328.33.66.5.985s.362.642.552.959c.372.636.764,1.262,1.154,1.887s.824,1.224,1.22,1.843c.413.609.786,1.244,1.218,1.838l1.255,1.809c.444.583.875,1.174,1.308,1.765s.906,1.146,1.348,1.729c.233.28.475.553.712.83s.468.562.727.817.5.535.758.787.528.5.8.74a7.211,7.211,0,0,0,1.805,1.2l-.014.077a2.6,2.6,0,0,1-.545-.158,4.039,4.039,0,0,1-.514-.232,8.908,8.908,0,0,1-.974-.569c-.311-.21-.6-.444-.9-.671s-.566-.488-.847-.737-.546-.512-.806-.78-.522-.535-.776-.81-.484-.567-.724-.852-.489-.565-.71-.864c-.442-.6-.885-1.2-1.316-1.8L601.734,68.9c-.412-.618-.765-1.271-1.134-1.913l-.539-.972-.267-.487-.25-.5c-.333-.662-.666-1.323-1.017-1.973L598,62.078c-.167-.33-.346-.653-.518-.98-.694-1.3-1.518-2.544-2.186-3.864a59.121,59.121,0,0,1-3.463-8.167Z" transform="translate(-545.628 -4.024)" fill="#fff" stroke="rgba(255,255,255,0)" stroke-miterlimit="10" stroke-width="0.25"/>
            <path id="Контур_5653" data-name="Контур 5653" d="M594.379,72.141c2.958-3.5,5.858-7.037,8.531-10.729.677-.918,1.335-1.849,1.95-2.809a23.71,23.71,0,0,0,1.667-2.981,12.25,12.25,0,0,0,1.015-3.238c.035-.28.067-.561.082-.842a7.876,7.876,0,0,0-.01-.843,6.712,6.712,0,0,0-.291-1.642,5.163,5.163,0,0,0-.725-1.464l-.25-.318c-.089-.1-.191-.189-.283-.285a2.032,2.032,0,0,0-.3-.261,2.446,2.446,0,0,0-.324-.233,4.671,4.671,0,0,0-1.477-.594,6.557,6.557,0,0,0-1.616-.107,10.939,10.939,0,0,0-3.22.734,22.006,22.006,0,0,0-3.043,1.436,45.32,45.32,0,0,0-5.631,3.815c-1.8,1.4-3.529,2.9-5.251,4.412l-.055-.056a58.41,58.41,0,0,1,4.916-4.832,36.732,36.732,0,0,1,5.612-4.065,19.623,19.623,0,0,1,3.174-1.475,11.686,11.686,0,0,1,3.47-.7,6.823,6.823,0,0,1,1.8.17,5.3,5.3,0,0,1,1.665.75,4.576,4.576,0,0,1,1.257,1.312,5.646,5.646,0,0,1,.7,1.647,8.489,8.489,0,0,1,.069,3.486,15.146,15.146,0,0,1-1.046,3.3,39.88,39.88,0,0,1-3.315,6.059c-.639.958-1.32,1.888-2.032,2.792s-1.44,1.794-2.2,2.66a62.687,62.687,0,0,1-4.782,4.96Z" transform="translate(-543.525 -2.772)" fill="#fff" stroke="rgba(255,255,255,0)" stroke-miterlimit="10" stroke-width="0.25"/>
            <path id="Контур_5654" data-name="Контур 5654" d="M604.954,83.675a6.556,6.556,0,0,1,.547-1.27,5.21,5.21,0,0,1,.359-.581,4.456,4.456,0,0,1,.423-.535c.306-.34.691-.615,1-.951a9.312,9.312,0,0,0,.821-1.091,7.239,7.239,0,0,1,.849-1.094A7.13,7.13,0,0,1,610,77.219a4.44,4.44,0,0,1,1.3-.624c.12-.031.239-.06.36-.08a3.117,3.117,0,0,1,.373-.024,1.236,1.236,0,0,1,.716.208l-.037.069a2.3,2.3,0,0,0-1.18.4,2.716,2.716,0,0,0-.266.17,2.68,2.68,0,0,0-.262.176c-.167.137-.347.241-.511.385s-.345.254-.515.391-.342.271-.518.4-.332.291-.508.428c-.087.069-.176.137-.269.2l-.261.214a4.617,4.617,0,0,0-.942.961,11.112,11.112,0,0,0-.669,1.183,8.783,8.783,0,0,1-.8,1.075,6.627,6.627,0,0,1-.98.964Z" transform="translate(-549.754 -12.656)" fill="#fff" stroke="rgba(255,255,255,0)" stroke-miterlimit="10" stroke-width="0.25"/>
          </g>
          <path id="Контур_5655" data-name="Контур 5655" d="M663.213,67.308a35.722,35.722,0,0,1,1.116-6.765,35.345,35.345,0,0,1,2.28-6.465c-.342,2.277-.882,4.48-1.435,6.682C664.6,62.956,664.009,65.147,663.213,67.308Z" transform="translate(-553.407 -3.914)" fill="#fff" stroke="rgba(255,255,255,0)" stroke-width="1"/>
          <path id="Контур_5656" data-name="Контур 5656" d="M661.83,63.889a28.035,28.035,0,0,1,.991-5.157,27.647,27.647,0,0,1,1.831-4.921,27.784,27.784,0,0,1-.991,5.157A28.065,28.065,0,0,1,661.83,63.889Z" transform="translate(-553.232 -3.881)" fill="#fff" stroke="rgba(255,255,255,0)" stroke-width="1"/>
          <path id="Контур_5657" data-name="Контур 5657" d="M660.223,60.269a12.162,12.162,0,0,1,.68-4.119c.417-1.316.862-2.57,1.356-3.9a9.889,9.889,0,0,1-.522,4.155A32.683,32.683,0,0,1,660.223,60.269Z" transform="translate(-553.028 -3.683)" fill="#fff" stroke="rgba(255,255,255,0)" stroke-width="1"/>
          <path id="Контур_5658" data-name="Контур 5658" d="M658.475,56.539a7.383,7.383,0,0,1,.333-2.653,7.3,7.3,0,0,1,1.169-2.405,8.2,8.2,0,0,1-1.5,5.059Z" transform="translate(-552.805 -3.586)" fill="#fff" stroke="rgba(255,255,255,0)" stroke-width="1"/>
        </g>
        <g id="Сгруппировать_676" data-name="Сгруппировать 676" transform="translate(548.001 63.007)">
          <path id="Контур_5667" data-name="Контур 5667" d="M578.82,120.079a8.208,8.208,0,0,1-1.549,1.9,8.1,8.1,0,0,1-1.992,1.433,5.664,5.664,0,0,1,3.542-3.337Z" transform="translate(-552.784 -78.632)" fill="#fff" stroke="rgba(255,255,255,0)" stroke-width="1"/>
          <path id="Контур_5668" data-name="Контур 5668" d="M577,117.956a6.176,6.176,0,0,1-1.508,1.915,6.1,6.1,0,0,1-2.087,1.261,6.111,6.111,0,0,1,1.508-1.915A6.176,6.176,0,0,1,577,117.956Z" transform="translate(-552.547 -78.363)" fill="#fff" stroke="rgba(255,255,255,0)" stroke-width="1"/>
          <path id="Контур_5669" data-name="Контур 5669" d="M575.781,115.148a5.605,5.605,0,0,1-1.413,1.842,5.538,5.538,0,0,1-1.993,1.19,6.17,6.17,0,0,1,3.406-3.032Z" transform="translate(-552.417 -78.008)" fill="#fff" stroke="rgba(255,255,255,0)" stroke-width="1"/>
          <path id="Контур_5670" data-name="Контур 5670" d="M574.654,112.583a2.316,2.316,0,0,1-.776,1.238,2.287,2.287,0,0,1-1.342.576,2.444,2.444,0,0,1,2.118-1.814Z" transform="translate(-552.437 -77.683)" fill="#fff" stroke="rgba(255,255,255,0)" stroke-width="1"/>
          <path id="Контур_5671" data-name="Контур 5671" d="M573.55,109.6a2.548,2.548,0,0,1-.862,1.154,2.511,2.511,0,0,1-1.334.542,2.075,2.075,0,0,1,.8-1.233A2.1,2.1,0,0,1,573.55,109.6Z" transform="translate(-552.287 -77.305)" fill="#fff" stroke="rgba(255,255,255,0)" stroke-width="1"/>
          <path id="Контур_5672" data-name="Контур 5672" d="M571.561,105.461a4.092,4.092,0,0,1-2.778,2.41,3.766,3.766,0,0,1,1.1-1.535A3.808,3.808,0,0,1,571.561,105.461Z" transform="translate(-551.962 -76.782)" fill="#fff" stroke="rgba(255,255,255,0)" stroke-width="1"/>
          <path id="Контур_5673" data-name="Контур 5673" d="M570.661,102.977a1.683,1.683,0,0,1-.69,1.011,1.665,1.665,0,0,1-1.187.293,1.713,1.713,0,0,1,1.877-1.3Z" transform="translate(-551.962 -76.465)" fill="#fff" stroke="rgba(255,255,255,0)" stroke-width="1"/>
          <path id="Контур_5674" data-name="Контур 5674" d="M569.49,100.623a5.3,5.3,0,0,1-3.6,2.195,4.783,4.783,0,0,1,1.571-1.47A4.849,4.849,0,0,1,569.49,100.623Z" transform="translate(-551.596 -76.169)" fill="#fff" stroke="rgba(255,255,255,0)" stroke-width="1"/>
          <path id="Контур_5675" data-name="Контур 5675" d="M555,83.053c-.12.036-.068-.2.03-.231l.219-.162.445-.31c.3-.2.6-.389.915-.565.617-.364,1.255-.681,1.9-.99a18.622,18.622,0,0,1,4.06-1.408,18.643,18.643,0,0,1-3.691,2.2c-.65.293-1.3.576-1.979.814-.335.123-.678.231-1.022.336l-.524.141C555.2,82.931,554.914,82.934,555,83.053Z" transform="translate(-550.209 -73.481)" fill="#fff" stroke="rgba(255,255,255,0)" stroke-width="1"/>
          <path id="Контур_5676" data-name="Контур 5676" d="M556.021,84.63a11.707,11.707,0,0,1,6.341-3.094,16.237,16.237,0,0,1-3.026,1.842A16.514,16.514,0,0,1,556.021,84.63Z" transform="translate(-550.346 -73.753)" fill="#fff" stroke="rgba(255,255,255,0)" stroke-width="1"/>
          <path id="Контур_5677" data-name="Контур 5677" d="M557.143,86.365a13.509,13.509,0,0,1,3.5-2.089,13.348,13.348,0,0,1,3.936-1.054,22.188,22.188,0,0,1-3.6,1.859A22.488,22.488,0,0,1,557.143,86.365Z" transform="translate(-550.488 -73.967)" fill="#fff" stroke="rgba(255,255,255,0)" stroke-width="1"/>
          <path id="Контур_5678" data-name="Контур 5678" d="M560.465,87.537a7.539,7.539,0,0,1,2.284-1.443,7.462,7.462,0,0,1,2.625-.64A7.438,7.438,0,0,1,563.09,86.9,7.523,7.523,0,0,1,560.465,87.537Z" transform="translate(-550.909 -74.249)" fill="#fff" stroke="rgba(255,255,255,0)" stroke-width="1"/>
          <path id="Контур_5679" data-name="Контур 5679" d="M553.78,81.26a6.131,6.131,0,0,1,4.693-2.291,10.18,10.18,0,0,1-2.219,1.405A10.349,10.349,0,0,1,553.78,81.26Z" transform="translate(-550.063 -73.428)" fill="#fff" stroke="rgba(255,255,255,0)" stroke-width="1"/>
          <path id="Контур_5680" data-name="Контур 5680" d="M552.27,79.25a3,3,0,0,1,1.3-1.073,2.951,2.951,0,0,1,1.659-.279,3,3,0,0,1-1.3,1.073A3.048,3.048,0,0,1,552.27,79.25Z" transform="translate(-549.872 -73.289)" fill="#fff" stroke="rgba(255,255,255,0)" stroke-width="1"/>
          <path id="Контур_5681" data-name="Контур 5681" d="M550.834,76.936a1.517,1.517,0,0,1,.8-.837,1.5,1.5,0,0,1,1.159-.04,1.543,1.543,0,0,1-1.963.877Z" transform="translate(-549.69 -73.047)" fill="#fff" stroke="rgba(255,255,255,0)" stroke-width="1"/>
          <path id="Контур_5682" data-name="Контур 5682" d="M549.524,74.06a4.625,4.625,0,0,1,3.661-1.411,4.2,4.2,0,0,1-1.673,1.113A4.243,4.243,0,0,1,549.524,74.06Z" transform="translate(-549.524 -72.625)" fill="#fff" stroke="rgba(255,255,255,0)" stroke-width="1"/>
        </g>
        <path id="Контур_5686" data-name="Контур 5686" d="M616.116-4.5a22.706,22.706,0,0,1-11.2,15.363,21.4,21.4,0,0,1-17.065,1.3,27.48,27.48,0,0,1-14.2-11.68,29.408,29.408,0,0,1-3.76-9.548,26.943,26.943,0,0,1-.013-10.627,23.576,23.576,0,0,1,4.177-9.344,21.175,21.175,0,0,1,7.135-6.1,21.909,21.909,0,0,1,17.13-1.259A26.587,26.587,0,0,1,612.6-24.708,28.219,28.219,0,0,1,616.116-4.5Zm-.073-.025A25.875,25.875,0,0,0,616.035-15a27.8,27.8,0,0,0-3.829-9.334,27.135,27.135,0,0,0-14.079-11.13,21.86,21.86,0,0,0-16.658,1.139,21.077,21.077,0,0,0-6.989,5.784,22.714,22.714,0,0,0-4.2,8.988,25.664,25.664,0,0,0-.127,10.421,27.364,27.364,0,0,0,3.71,9.429,26.2,26.2,0,0,0,14.152,11.133,22.409,22.409,0,0,0,16.722-1.1,20.687,20.687,0,0,0,7.082-5.756A22.663,22.663,0,0,0,616.043-4.524Z" transform="translate(19.835 194.167) rotate(-12)" fill="#fff" stroke="rgba(255,255,255,0)" stroke-width="1"/>
      </g>
      <g id="Сгруппировать_678" data-name="Сгруппировать 678" transform="matrix(0.616, 0.788, -0.788, 0.616, 168.353, -435.882)">
        <path id="Контур_5659-2" data-name="Контур 5659" d="M619.42-9.2a21.114,21.114,0,0,1-4.745,8.651A24.207,24.207,0,0,1,606.6,5.283a29.371,29.371,0,0,1-19.763,1.283,32.511,32.511,0,0,1-9.089-4.233A30.8,30.8,0,0,1,570.49-4.5a25.35,25.35,0,0,1-4.344-8.934,20.817,20.817,0,0,1-.075-9.967,20.141,20.141,0,0,1,4.779-8.839,23.965,23.965,0,0,1,8.279-5.777,30.611,30.611,0,0,1,19.893-1.213,29.823,29.823,0,0,1,16.49,11.071C619.453-22.746,621.217-15.645,619.42-9.2Zm-.145-.039a19.389,19.389,0,0,0-.064-9.733,23.2,23.2,0,0,0-4.483-8.586,31.434,31.434,0,0,0-16.1-10.176,30.538,30.538,0,0,0-18.949,1.019,23.627,23.627,0,0,0-7.958,5.291,19.771,19.771,0,0,0-4.852,8.235,19.1,19.1,0,0,0-.206,9.634A22.329,22.329,0,0,0,570.9-4.816,26.667,26.667,0,0,0,578.2,1.63a32.484,32.484,0,0,0,8.957,3.735,31.993,31.993,0,0,0,19.079-.95A23.351,23.351,0,0,0,614.39-.819,18.884,18.884,0,0,0,619.275-9.241Z" fill="#fff" stroke="rgba(255,255,255,0)" stroke-width="1"/>
        <path id="Контур_5660-2" data-name="Контур 5660" d="M617.969-5.908a19.331,19.331,0,0,1-.538,3.6,18.888,18.888,0,0,1-4.885,8.422,23.352,23.352,0,0,1-8.159,5.234,31.986,31.986,0,0,1-19.079.95,32.454,32.454,0,0,1-8.957-3.735,26.666,26.666,0,0,1-7.293-6.446,22.329,22.329,0,0,1-4.243-8.741,19.1,19.1,0,0,1,.206-9.634,17.949,17.949,0,0,1,.908-2.43,3,3,0,0,1-.478-1.2V-19.9a18.964,18.964,0,0,0-1.224,3.427,20.822,20.822,0,0,0,.075,9.968,25.366,25.366,0,0,0,4.344,8.934A30.8,30.8,0,0,0,575.9,9.261a32.518,32.518,0,0,0,9.088,4.233,29.374,29.374,0,0,0,19.764-1.283,24.2,24.2,0,0,0,8.079-5.833,21.124,21.124,0,0,0,4.745-8.652,19.19,19.19,0,0,0,.673-4.391A3.648,3.648,0,0,1,617.969-5.908Z" fill="#fff" stroke="rgba(255,255,255,0)" stroke-width="1"/>
        <path id="Контур_5661-2" data-name="Контур 5661" d="M566.468-23.3a11.745,11.745,0,0,1-.439,3.593,11.632,11.632,0,0,1-1.4,3.335,11.612,11.612,0,0,1,.439-3.592A11.776,11.776,0,0,1,566.468-23.3Z" fill="#fff" stroke="rgba(255,255,255,0)" stroke-width="1"/>
        <path id="Контур_5662-2" data-name="Контур 5662" d="M619.348-9.222a23.472,23.472,0,0,1-.681,3.529,23.236,23.236,0,0,1-1.163,3.4,23.173,23.173,0,0,1,.68-3.529A23.349,23.349,0,0,1,619.348-9.222Z" fill="#fff" stroke="rgba(255,255,255,0)" stroke-width="1"/>
        <path id="Контур_5663-2" data-name="Контур 5663" d="M585.661-26.436c.542.938,1.026,1.9,1.5,2.865s.969,1.919,1.4,2.906.856,1.975,1.333,2.941c.122.239.24.481.367.718s.264.469.4.7c.272.464.557.92.842,1.376s.6.893.89,1.344.574.908.889,1.341l.915,1.32c.324.425.638.857.954,1.287s.661.836.983,1.262c.17.2.347.4.52.605s.342.409.531.595.361.391.553.575.385.365.585.539a5.256,5.256,0,0,0,1.317.875l-.01.057a1.892,1.892,0,0,1-.4-.116,2.879,2.879,0,0,1-.375-.169,6.556,6.556,0,0,1-.711-.415c-.227-.153-.44-.324-.659-.489s-.413-.356-.618-.538-.4-.373-.588-.569-.381-.391-.566-.59-.353-.414-.528-.622-.357-.412-.518-.63c-.322-.437-.646-.873-.96-1.316l-.879-1.367c-.3-.45-.558-.927-.827-1.4l-.394-.709-.194-.355-.183-.362c-.243-.483-.485-.965-.741-1.44l-.386-.711c-.121-.24-.252-.476-.377-.714-.506-.951-1.107-1.856-1.595-2.819a43.1,43.1,0,0,1-2.526-5.957Z" fill="#fff" stroke="rgba(255,255,255,0)" stroke-miterlimit="10" stroke-width="0.25"/>
        <path id="Контур_5664-2" data-name="Контур 5664" d="M589-8.67c2.159-2.555,4.273-5.133,6.224-7.826.493-.669.973-1.348,1.422-2.048a17.342,17.342,0,0,0,1.216-2.175,9,9,0,0,0,.741-2.362c.025-.2.049-.409.059-.614a5.494,5.494,0,0,0-.007-.615,4.921,4.921,0,0,0-.212-1.2,3.766,3.766,0,0,0-.529-1.068l-.183-.232c-.065-.073-.138-.138-.206-.208a1.424,1.424,0,0,0-.221-.19,1.7,1.7,0,0,0-.236-.17,3.41,3.41,0,0,0-1.078-.434,4.784,4.784,0,0,0-1.179-.078,7.986,7.986,0,0,0-2.349.536,15.908,15.908,0,0,0-2.219,1.047,33.051,33.051,0,0,0-4.108,2.783c-1.315,1.018-2.574,2.113-3.83,3.219l-.04-.041a42.612,42.612,0,0,1,3.586-3.525,26.741,26.741,0,0,1,4.094-2.965,14.247,14.247,0,0,1,2.315-1.076,8.526,8.526,0,0,1,2.531-.513,4.972,4.972,0,0,1,1.312.124,3.861,3.861,0,0,1,1.215.547,3.36,3.36,0,0,1,.918.957,4.146,4.146,0,0,1,.507,1.2,6.208,6.208,0,0,1,.051,2.542,11.131,11.131,0,0,1-.763,2.407,29.134,29.134,0,0,1-2.418,4.419c-.466.7-.963,1.377-1.482,2.037s-1.051,1.308-1.6,1.94a45.817,45.817,0,0,1-3.488,3.618Z" fill="#fff" stroke="rgba(255,255,255,0)" stroke-miterlimit="10" stroke-width="0.25"/>
        <path id="Контур_5665-2" data-name="Контур 5665" d="M592.171-7.467a4.807,4.807,0,0,1,.4-.926,3.78,3.78,0,0,1,.262-.424,3.217,3.217,0,0,1,.309-.391c.222-.248.5-.449.726-.693a6.838,6.838,0,0,0,.6-.8,5.191,5.191,0,0,1,.619-.8,5.229,5.229,0,0,1,.765-.68,3.251,3.251,0,0,1,.944-.456c.088-.022.175-.043.263-.057a2.272,2.272,0,0,1,.272-.018.891.891,0,0,1,.522.152l-.027.05a1.668,1.668,0,0,0-.86.289,1.669,1.669,0,0,0-.194.124,1.673,1.673,0,0,0-.191.128c-.122.1-.254.175-.373.281s-.252.185-.376.285-.249.2-.377.3-.242.212-.371.312c-.063.05-.128.1-.2.148l-.19.155a3.363,3.363,0,0,0-.687.7,8.109,8.109,0,0,0-.488.862,6.484,6.484,0,0,1-.587.784,4.915,4.915,0,0,1-.715.7Z" fill="#fff" stroke="rgba(255,255,255,0)" stroke-miterlimit="10" stroke-width="0.25"/>
        <path id="Контур_5666-2" data-name="Контур 5666" d="M616.116-10.777a19.251,19.251,0,0,1-11.2,12.446,25.962,25.962,0,0,1-17.065,1.054,27.048,27.048,0,0,1-14.2-9.462,21.43,21.43,0,0,1-3.76-7.735,17.774,17.774,0,0,1-.013-8.609,17.607,17.607,0,0,1,4.177-7.57,20.643,20.643,0,0,1,7.135-4.941,26.6,26.6,0,0,1,17.13-1.02A26.2,26.2,0,0,1,612.6-27.149C616.063-22.528,617.663-16.381,616.116-10.777Zm-.073-.02a17.074,17.074,0,0,0-.008-8.491,20.405,20.405,0,0,0-3.829-7.562,27.006,27.006,0,0,0-14.079-9.017,26.571,26.571,0,0,0-16.658.923,20.741,20.741,0,0,0-6.989,4.686,17.118,17.118,0,0,0-4.2,7.281,16.937,16.937,0,0,0-.127,8.442,19.944,19.944,0,0,0,3.71,7.639,26.11,26.11,0,0,0,14.152,9.019,27.259,27.259,0,0,0,16.722-.888,20.462,20.462,0,0,0,7.082-4.663A17.059,17.059,0,0,0,616.043-10.8Z" fill="#fff" stroke="rgba(255,255,255,0)" stroke-width="1"/>
      </g>
    </g>
  </g>
</svg>
