<svg xmlns="http://www.w3.org/2000/svg" xmlns:xlink="http://www.w3.org/1999/xlink" width="200" height="200" viewBox="0 0 200 200">
  <defs>
    <clipPath id="clip-ОбоМне">
      <rect width="200" height="200"/>
    </clipPath>
  </defs>
  <g id="ОбоМне" clip-path="url(#clip-ОбоМне)">
    <g id="Сгруппировать_702" data-name="Сгруппировать 702" transform="translate(-404.902 -243.679)">
      <path id="Контур_5683" data-name="Контур 5683" d="M346.139,139.639c1.486-.534,3.023-1.071,4.6-1.585s3.166-1.037,4.784-1.518v1.121c-1.592-.388-3.178-.8-4.761-1.218s-3.161-.861-4.73-1.337l-.358-.109-.079-.328c-.762-3.188-1.416-6.406-2.228-9.58h.469q-.681,2.361-1.287,4.743c-.413,1.585-.764,3.187-1.148,4.78l-.051.214-.237.074c-1.564.491-3.119,1.011-4.691,1.476s-3.135.955-4.71,1.4v-1.361c3.173.815,6.35,1.62,9.5,2.505l.449.126.112.434c.406,1.587.839,3.167,1.223,4.76l1.167,4.776h-1.131c.487-1.617,1.028-3.2,1.535-4.776S345.614,141.135,346.139,139.639Zm.106.106-1.023,4.878c-.358,1.586-.683,3.16-1.06,4.7l-.5,2.062-.626-2.062-1.43-4.7c-.481-1.567-.913-3.147-1.372-4.719l.56.56c-3.166-.846-6.309-1.772-9.455-2.687l-2.46-.716,2.46-.645c1.585-.416,3.177-.8,4.769-1.192s3.193-.746,4.788-1.12l-.287.287c.482-1.566,1-3.124,1.448-4.7s.9-3.151,1.31-4.737l.221-.85.248.85c.918,3.146,1.994,6.248,2.963,9.379l-.437-.437q2.388.585,4.751,1.26c1.576.445,3.15.9,4.717,1.378l2.026.616-2.026.505c-1.542.384-3.113.714-4.7,1.077S347.92,139.415,346.245,139.745Z" transform="translate(206.271 159.252)" fill="#fff"/>
      <path id="Контур_5684" data-name="Контур 5684" d="M338.407,132.683c.821-.295,1.669-.591,2.537-.875s1.748-.573,2.642-.838v.619c-.879-.214-1.755-.441-2.629-.673s-1.745-.475-2.612-.738l-.2-.06-.044-.181c-.421-1.76-.782-3.537-1.23-5.29h.259q-.376,1.3-.711,2.619c-.228.875-.422,1.76-.634,2.639l-.028.118-.131.041c-.864.271-1.722.558-2.59.815s-1.731.527-2.6.776V130.9c1.752.45,3.506.895,5.248,1.383l.248.07.062.24c.224.876.463,1.749.675,2.628l.644,2.637h-.624c.269-.893.568-1.768.848-2.637S338.117,133.509,338.407,132.683Zm.059.059-.565,2.693c-.2.876-.377,1.745-.585,2.6l-.279,1.139-.346-1.139-.79-2.6c-.266-.865-.5-1.738-.758-2.606l.309.309c-1.748-.467-3.484-.978-5.221-1.484l-1.358-.4,1.358-.356c.875-.23,1.754-.443,2.633-.658s1.763-.412,2.644-.618l-.158.158c.266-.865.55-1.725.8-2.594s.5-1.74.723-2.616l.122-.469.137.469c.507,1.737,1.1,3.45,1.636,5.179l-.241-.241q1.319.323,2.623.7c.87.246,1.739.5,2.6.761l1.119.34-1.119.279c-.851.212-1.719.394-2.592.595S339.391,132.559,338.466,132.741Z" transform="translate(227.248 179.003)" fill="#fff"/>
      <path id="Контур_5685" data-name="Контур 5685" d="M341.067,135.076c1.049-.377,2.135-.756,3.245-1.119s2.236-.732,3.379-1.072v.792c-1.124-.274-2.244-.564-3.362-.86s-2.232-.608-3.34-.944l-.253-.077-.056-.232c-.538-2.251-1-4.524-1.573-6.766h.331q-.481,1.667-.909,3.35c-.292,1.119-.54,2.251-.811,3.376l-.036.151-.167.052c-1.1.347-2.2.714-3.313,1.042s-2.214.674-3.326.992V132.8c2.241.576,4.484,1.144,6.712,1.769l.317.089.079.306c.287,1.121.592,2.237.864,3.362l.824,3.373h-.8c.344-1.142.726-2.261,1.084-3.373S340.7,136.132,341.067,135.076Zm.075.075-.722,3.445c-.253,1.12-.482,2.232-.749,3.322l-.357,1.456-.442-1.456-1.01-3.322c-.34-1.107-.645-2.222-.969-3.333l.4.4c-2.236-.6-4.456-1.251-6.677-1.9l-1.737-.506,1.737-.456c1.119-.294,2.244-.567,3.368-.842s2.255-.527,3.381-.791l-.2.2c.34-1.106.7-2.206,1.023-3.318s.633-2.225.925-3.345l.156-.6.175.6c.648,2.222,1.408,4.412,2.092,6.624l-.309-.309q1.686.413,3.355.89c1.113.314,2.225.636,3.331.973l1.431.435-1.431.357c-1.089.271-2.2.5-3.316.761S342.325,134.917,341.142,135.15Z" transform="translate(108.807 260.626)" fill="#fff"/>
      <circle id="Эллипс_8" data-name="Эллипс 8" cx="2.5" cy="2.5" r="2.5" transform="translate(458.145 290)" fill="#fff"/>
      <circle id="Эллипс_9" data-name="Эллипс 9" cx="2" cy="2" r="2" transform="translate(564.145 333)" fill="#fff"/>
      <g id="Сгруппировать_680" data-name="Сгруппировать 680" transform="translate(69.627 291.905)">
        <path id="Контур_5687" data-name="Контур 5687" d="M476.177,54.246a43.455,43.455,0,0,1-12.184,30.249,41.805,41.805,0,0,1-30.249,12.66,42.766,42.766,0,0,1-16.352-3.433,43.476,43.476,0,0,1-26.373-39.476,43.022,43.022,0,0,1,3.121-16.405,42.37,42.37,0,0,1,9.211-13.988,43.168,43.168,0,0,1,13.92-9.376,42.715,42.715,0,0,1,32.924.054,42.126,42.126,0,0,1,13.811,9.453A43.464,43.464,0,0,1,476.177,54.246Zm-.131,0A41.356,41.356,0,0,0,463.4,24.592a42.722,42.722,0,0,0-29.654-12.04A42.245,42.245,0,0,0,404.22,24.722a42.7,42.7,0,0,0-9.153,13.5,42.148,42.148,0,0,0-3.333,16.021,41.567,41.567,0,0,0,3.082,16.125,41.063,41.063,0,0,0,9.13,13.674,41.806,41.806,0,0,0,29.8,12.029,43.1,43.1,0,0,0,29.668-12.158,41.358,41.358,0,0,0,12.634-29.668Z" fill="#fff"/>
        <path id="Контур_5688" data-name="Контур 5688" d="M417.473,17.826a12.712,12.712,0,0,0-.62,3.016,3.6,3.6,0,0,0,.917,2.679,10.48,10.48,0,0,1,1.034,1.246,3.761,3.761,0,0,1,.546,1.653,7.422,7.422,0,0,1-.63,3.244,27.689,27.689,0,0,0-1.017,2.889,5.31,5.31,0,0,0-.18,1.4,1.83,1.83,0,0,0,.28,1.14,1.153,1.153,0,0,0,.428.31,2.853,2.853,0,0,1,.787.532,2.733,2.733,0,0,1,.737,1.8,9.213,9.213,0,0,1-.749,3.207,4.385,4.385,0,0,0,.112,2.768,12.566,12.566,0,0,0,1.405,2.673,12.591,12.591,0,0,0,1.857,2.414,5.442,5.442,0,0,0,2.721,1.189,7.3,7.3,0,0,1,3,1.1,7.971,7.971,0,0,0,2.485,1.726,17.368,17.368,0,0,0,3.075.277,3.984,3.984,0,0,1,1.606.474,3.256,3.256,0,0,1,1.219,1.217,5.89,5.89,0,0,1-.833,6.332c-1.274,1.76-2.941,3.116-3.876,4.795a5.891,5.891,0,0,0-.785,2.678,3.208,3.208,0,0,0,.228,1.272,3.721,3.721,0,0,0,.761,1.108,3.208,3.208,0,0,1,.873,1.72,3.715,3.715,0,0,1-.32,1.874,15.97,15.97,0,0,1-.732,1.458,4.6,4.6,0,0,0-.46,1.259c-.155.855.143,1.367.941,1.48.829.144,1.971-.214,3.254.283a2.97,2.97,0,0,1,1.412,1.322,4.718,4.718,0,0,1,.527,1.7,17.666,17.666,0,0,1-.132,3.222,4.729,4.729,0,0,0,.575,2.773,9.455,9.455,0,0,1,1.281,2.962c.3,2.288-1.015,4.167-.8,6.244l-.129.023a8.2,8.2,0,0,1,.143-3.152,8.249,8.249,0,0,0,.133-3,8.984,8.984,0,0,0-1.377-2.664,5.88,5.88,0,0,1-.685-1.544,6.22,6.22,0,0,1-.166-1.679,17.457,17.457,0,0,0,.024-3.024,2.46,2.46,0,0,0-1.29-2.016c-.709-.28-1.722,0-2.953-.12a2.449,2.449,0,0,1-1.8-1.045,2.78,2.78,0,0,1-.342-2,5.637,5.637,0,0,1,.6-1.673c.257-.478.5-.906.679-1.335a2.374,2.374,0,0,0,.229-1.172,1.918,1.918,0,0,0-.538-1.018,5.059,5.059,0,0,1-.951-1.492,4.526,4.526,0,0,1-.288-1.793A7.124,7.124,0,0,1,430.7,65.3c1.164-1.967,2.9-3.226,4.116-4.811a6.292,6.292,0,0,0,1.3-2.571,4.287,4.287,0,0,0-.266-2.793,2.825,2.825,0,0,0-2.272-1.479,23.417,23.417,0,0,1-3.135-.4,8.161,8.161,0,0,1-2.592-1.843,6.509,6.509,0,0,0-2.841-1,6.139,6.139,0,0,1-2.983-1.195,13.137,13.137,0,0,1-2.106-2.409,13.147,13.147,0,0,1-1.662-2.765,5.3,5.3,0,0,1-.308-3.368,9.682,9.682,0,0,0,.64-2.856,1.59,1.59,0,0,0-.4-1.042,2.026,2.026,0,0,0-.51-.332,2.293,2.293,0,0,1-.8-.64,2.9,2.9,0,0,1-.492-1.834,6.452,6.452,0,0,1,.24-1.689,26.852,26.852,0,0,1,1.149-2.98,7.176,7.176,0,0,0,.711-2.815,2.958,2.958,0,0,0-.349-1.313,10.34,10.34,0,0,0-.9-1.209,3.811,3.811,0,0,1-.758-1.5,4.564,4.564,0,0,1-.072-1.649,11.124,11.124,0,0,1,.942-3.026Z" transform="translate(-3.262 -0.846)" fill="#fff"/>
        <path id="Контур_5689" data-name="Контур 5689" d="M446.29,12.509a3.542,3.542,0,0,0,1.351,2.651,29.955,29.955,0,0,1,2.335,2.214,4.784,4.784,0,0,1,.863,1.494,3.586,3.586,0,0,1,.061,1.783,11.387,11.387,0,0,1-1.4,2.993,3.531,3.531,0,0,0-.66,2.61c.183.805.992,1.381,1.88,1.915a9.9,9.9,0,0,1,1.393.941,4.5,4.5,0,0,1,1.131,1.43,2.385,2.385,0,0,1,.075,2.017,4.589,4.589,0,0,1-1.159,1.37,12.93,12.93,0,0,0-1.884,2.4l-1.723,2.679a51.894,51.894,0,0,0-3.233,5.458,16.069,16.069,0,0,0-1.713,6,3.4,3.4,0,0,0,.25,1.459,5.329,5.329,0,0,0,.84,1.263,6.917,6.917,0,0,1,1.793,2.786c.26,1.256-.435,2.327-.34,3.175.048.825.893,1.386,1.794,1.911a56.77,56.77,0,0,0,5.595,2.9,19.031,19.031,0,0,1,2.909,1.54,6.671,6.671,0,0,1,2.327,2.6,4.746,4.746,0,0,1,.481,1.783,4.115,4.115,0,0,1-.341,1.863,8.361,8.361,0,0,1-2.145,2.694,9.555,9.555,0,0,0-1.963,2.207,7.026,7.026,0,0,0-.62,2.82,6.978,6.978,0,0,1-.877,3.331,5.927,5.927,0,0,1-1.222,1.231,4,4,0,0,0-.9,1.091c-.481.858-.922,1.872-1.391,2.813l-1.387,2.87q-1.392,2.868-2.84,5.711l-.119-.053q1.15-2.976,2.355-5.928l1.21-2.949c.423-.985.755-1.956,1.283-2.969a5.106,5.106,0,0,1,1.07-1.391,4.975,4.975,0,0,0,.988-1.046,5.952,5.952,0,0,0,.578-2.8,7.715,7.715,0,0,1,.694-3.362,10.681,10.681,0,0,1,2.187-2.589,7.365,7.365,0,0,0,1.822-2.231,2.984,2.984,0,0,0-.092-2.518c-.761-1.728-2.629-2.715-4.526-3.607a48.2,48.2,0,0,1-5.619-3.135,7.835,7.835,0,0,1-1.357-1.026,2.539,2.539,0,0,1-.782-1.725c.022-1.291.71-2.184.527-3.087a6.508,6.508,0,0,0-1.531-2.567,5.957,5.957,0,0,1-.85-1.425,3.869,3.869,0,0,1-.258-1.659,18.473,18.473,0,0,1,1.789-6.171c.892-1.946,1.959-3.8,2.994-5.653l1.566-2.779a13.109,13.109,0,0,1,1.9-2.7,3.775,3.775,0,0,0,.88-1.05,1.3,1.3,0,0,0-.083-1.064A3.34,3.34,0,0,0,451.351,30a10.282,10.282,0,0,0-1.238-.848,8.787,8.787,0,0,1-1.371-1.012,3.175,3.175,0,0,1-.867-3.478,8.4,8.4,0,0,1,.753-1.526,12.291,12.291,0,0,0,1.434-2.689,2.765,2.765,0,0,0,.033-1.364,4.053,4.053,0,0,0-.657-1.283c-.616-.8-1.406-1.521-2.121-2.335a5.83,5.83,0,0,1-.925-1.354,2.879,2.879,0,0,1-.233-1.616Z" transform="translate(-6.708 -0.166)" fill="#fff"/>
        <path id="Контур_5690" data-name="Контур 5690" d="M393.435,73.53a1.683,1.683,0,0,0,1.353.715A6.116,6.116,0,0,0,396.4,74.1a13.714,13.714,0,0,1,3.573-.5,3.978,3.978,0,0,1,1.862.626,4.549,4.549,0,0,1,1.3,1.382,7.546,7.546,0,0,1,1.062,3.49,12.449,12.449,0,0,1,.01,1.819c-.006.124.017.21.023.2s-.055-.075.035-.029a4.554,4.554,0,0,1,.863.422,2.948,2.948,0,0,1,1.352,1.754,2.73,2.73,0,0,1-.571,2.184,15.111,15.111,0,0,0-1,1.331,3.154,3.154,0,0,0-.322,1.431c-.023.557.013,1.159-.055,1.784A2.667,2.667,0,0,1,403.8,91.7l-.1-.078a2.724,2.724,0,0,0,.169-1.633c-.078-.553-.226-1.121-.3-1.741a3.822,3.822,0,0,1,.208-2.027,10.456,10.456,0,0,1,1-1.581,1.585,1.585,0,0,0,.38-1.114,1.665,1.665,0,0,0-.711-1.011,2.985,2.985,0,0,0-.308-.2c-.114-.068-.194-.1-.387-.2a1.133,1.133,0,0,1-.56-.648,1.373,1.373,0,0,1-.013-.68c.123-.585.254-1.128.316-1.7a4.443,4.443,0,0,0-.7-3.24,2.857,2.857,0,0,0-1.287-.978,3.671,3.671,0,0,0-1.546-.182c-1.058.057-2.192.341-3.427.423a4.9,4.9,0,0,1-1.9-.183,1.789,1.789,0,0,1-1.319-1.352Z" transform="translate(-0.295 -8.02)" fill="#fff"/>
        <path id="Контур_5691" data-name="Контур 5691" d="M470.419,23.889a7.96,7.96,0,0,1-.037,3.034,5.028,5.028,0,0,1-1.57,2.761,9.978,9.978,0,0,1-2.73,1.47,8.7,8.7,0,0,0-1.213.618,4.125,4.125,0,0,0-.944.854,1.711,1.711,0,0,0-.136,2.206c.244.382.582.749.882,1.172a3.559,3.559,0,0,1,.653,1.432,7.278,7.278,0,0,1-.178,3.03,3.358,3.358,0,0,0,.06,2.655,4.808,4.808,0,0,0,2.189,1.52,7.072,7.072,0,0,1,2.713,1.674,3.436,3.436,0,0,1,.494.762c.125.269.2.5.288.674a1.154,1.154,0,0,0,.735.6c.373.138.848.231,1.369.392a4.069,4.069,0,0,1,1.515.823c1.2,1.319,3.066.671,4.438-.6.714-.625,1.412-1.358,2.247-1.971a4.346,4.346,0,0,1,2.881-.951v.131a4.454,4.454,0,0,0-2.461,1.33c-.69.647-1.248,1.454-1.953,2.2a5.719,5.719,0,0,1-2.712,1.765,3.509,3.509,0,0,1-1.784.027,4.041,4.041,0,0,1-1.525-.843,2.773,2.773,0,0,0-1.065-.584,14.181,14.181,0,0,1-1.466-.46,2.949,2.949,0,0,1-.815-.5,2.318,2.318,0,0,1-.586-.826,4.089,4.089,0,0,0-.55-1.19,6.977,6.977,0,0,0-2.215-1.523,5.192,5.192,0,0,1-2.369-2.112,2.708,2.708,0,0,1-.234-1.629,12.794,12.794,0,0,1,.37-1.475,5.6,5.6,0,0,0,.2-2.825,2.782,2.782,0,0,0-.66-1.193c-.318-.348-.7-.664-1.046-1.074a2.614,2.614,0,0,1-.67-1.583,2.909,2.909,0,0,1,.5-1.684,5.184,5.184,0,0,1,2.6-1.913,11.386,11.386,0,0,0,2.537-1.188c1.422-1.049,1.983-3.064,2.116-5Z" transform="translate(-9.203 -1.632)" fill="#fff"/>
        <path id="Контур_5692" data-name="Контур 5692" d="M487.686,57.115a12,12,0,0,1-1.886,1.542c-.658.456-1.386.854-1.964,1.2a2.281,2.281,0,0,0-.739.633,1.312,1.312,0,0,0-.169.992A4.4,4.4,0,0,0,484.2,63.41a4.06,4.06,0,0,1,.745,1.1A2.482,2.482,0,0,1,485.091,66a7.676,7.676,0,0,1-.4,1.236,3.708,3.708,0,0,0-.246.946,4.025,4.025,0,0,0,1.679,3.679l-.044.123a3.688,3.688,0,0,1-3.026-3.929,3.937,3.937,0,0,1,.38-1.354,9.993,9.993,0,0,0,.46-1,2.538,2.538,0,0,0-.284-1.9,19.789,19.789,0,0,1-1.087-2.212,2.475,2.475,0,0,1-.095-1.362,2.524,2.524,0,0,1,.732-1.222,4.191,4.191,0,0,1,1.07-.723c.355-.183.715-.357,1.084-.515A12,12,0,0,1,487.622,57Z" transform="translate(-11.755 -5.893)" fill="#fff"/>
      </g>
    </g>
  </g>
</svg>
