<svg xmlns="http://www.w3.org/2000/svg" width="35" height="35" viewBox="0 0 35 35">
  <g id="Сгруппировать_549" data-name="Сгруппировать 549" transform="translate(-1515 -12)">
    <g id="Сгруппировать_493" data-name="Сгруппировать 493" transform="translate(1515 11.997)">
      <path id="Контур_5513" data-name="Контур 5513" d="M103.62,183.46a1.239,1.239,0,0,0-1.239,1.239v3.523a1.239,1.239,0,0,0,2.478,0V184.7A1.239,1.239,0,0,0,103.62,183.46Z" transform="translate(-86.122 -154.459)" fill="#fff"/>
      <path id="Контур_5514" data-name="Контур 5514" d="M103.62,6a1.239,1.239,0,0,0,1.239-1.239V1.242a1.239,1.239,0,0,0-2.478,0V4.766A1.239,1.239,0,0,0,103.62,6Z" transform="translate(-86.122)" fill="#fff"/>
      <path id="Контур_5515" data-name="Контур 5515" d="M32.842,160.077l-2.492,2.491a1.239,1.239,0,0,0,1.752,1.753l2.492-2.491a1.239,1.239,0,0,0-1.752-1.753Z" transform="translate(-25.032 -134.636)" fill="#fff"/>
      <path id="Контур_5516" data-name="Контур 5516" d="M160.948,34.959a1.236,1.236,0,0,0,.876-.363l2.492-2.491a1.239,1.239,0,1,0-1.752-1.753l-2.492,2.491a1.239,1.239,0,0,0,.876,2.116Z" transform="translate(-134.635 -25.032)" fill="#fff"/>
      <path id="Контур_5517" data-name="Контур 5517" d="M6,103.634a1.239,1.239,0,0,0-1.239-1.239H1.239a1.239,1.239,0,0,0,0,2.478H4.762A1.239,1.239,0,0,0,6,103.634Z" transform="translate(0 -86.131)" fill="#fff"/>
      <path id="Контур_5518" data-name="Контур 5518" d="M188.216,102.395h-3.525a1.239,1.239,0,1,0,0,2.478h3.525a1.239,1.239,0,1,0,0-2.478Z" transform="translate(-154.455 -86.131)" fill="#fff"/>
      <path id="Контур_5519" data-name="Контур 5519" d="M32.848,34.6A1.239,1.239,0,0,0,34.6,32.845L32.11,30.354a1.239,1.239,0,0,0-1.752,1.752Z" transform="translate(-25.038 -25.033)" fill="#fff"/>
      <path id="Контур_5520" data-name="Контур 5520" d="M161.831,160.077a1.239,1.239,0,0,0-1.753,1.752l2.491,2.491a1.239,1.239,0,1,0,1.753-1.752Z" transform="translate(-134.641 -134.636)" fill="#fff"/>
      <path id="Контур_5521" data-name="Контур 5521" d="M60.5,51.518a8.989,8.989,0,1,0,8.988,8.989A9,9,0,0,0,60.5,51.518Zm0,15.667a6.679,6.679,0,1,1,6.679-6.679A6.686,6.686,0,0,1,60.5,67.185Z" transform="translate(-43.004 -43.003)" fill="#fff"/>
    </g>
    <circle id="Эллипс_1" data-name="Эллипс 1" cx="8" cy="8" r="8" transform="translate(1525 22)" fill="#fff"/>
  </g>
</svg>
