<svg xmlns="http://www.w3.org/2000/svg" width="216.945" height="215.143" viewBox="0 0 216.945 215.143">
  <g id="Сгруппировать_574" data-name="Сгруппировать 574" opacity="0.4">
    <path id="Контур_5622" data-name="Контур 5622" d="M232.983,382.438a293.37,293.37,0,0,1-9.273,81.513,243.533,243.533,0,0,1-13.4,38.568c-5.737,12.279-12.324,24.258-21.057,34.606a114.161,114.161,0,0,1-14.04,14.584l-3.889,3.263c-.657.543-.592.495-1.253.526l-2.522-.093c-3.38-.2-6.764-.557-10.141-.979a169.982,169.982,0,0,1-39.537-10.452A192.023,192.023,0,0,1,50.2,498.591c-2.356-2.474-4.823-4.84-7.089-7.394l-6.57-7.858c-4.55-5.1-8.283-10.837-12.345-16.31l-3-4.141a.774.774,0,0,1-.128-.706.683.683,0,0,1,.159-.27l.82-.834q3.643-3.7,7.179-7.477,7.095-7.551,13.84-15.414c17.978-20.933,34.893-43.045,47.844-67.718a182.37,182.37,0,0,0,8.709-19.019l.941-2.322a.241.241,0,0,1,.145-.156c.055,0-.007-.024.166,0l1.266.2,2.533.408,10.148,1.633c13.535,2.225,27,4.84,40.46,7.536,13.452,2.74,26.828,5.861,40.08,9.473,6.643,1.754,13.186,3.861,19.7,6.034,3.242,1.128,6.519,2.173,9.719,3.422l4.823,1.806a14.588,14.588,0,0,1,2.308.962A2.6,2.6,0,0,1,232.983,382.438Zm.516-.021A3.133,3.133,0,0,0,232.24,380a14.119,14.119,0,0,0-2.415-1.076l-4.8-1.9c-3.187-1.311-6.446-2.415-9.674-3.609-6.474-2.342-13.04-4.415-19.583-6.564-13.11-4.228-26.379-7.968-39.72-11.421-13.338-3.508-26.821-6.4-40.353-9.072-3.387-.651-6.768-1.332-10.172-1.9l-2.557-.426-1.277-.208a5.554,5.554,0,0,0-2.391.118,5.476,5.476,0,0,0-3.571,3.159l-1.007,2.453a176.784,176.784,0,0,1-8.549,18.421,323.851,323.851,0,0,1-21.7,34.613c-7.875,11.165-16.314,21.95-25.123,32.43-4.384,5.259-8.93,10.383-13.494,15.483l-6.941,7.557-.958,1.035a4.974,4.974,0,0,0-1.035,1.986,5.053,5.053,0,0,0,.782,4.2l3.138,4.145c4.238,5.487,8.183,11.2,13,16.206l6.93,7.736c2.384,2.509,4.965,4.83,7.435,7.249a219.163,219.163,0,0,0,69,45.024,201.093,201.093,0,0,0,39.765,11.639c3.425.557,6.868,1.052,10.345,1.38l2.63.19a4.811,4.811,0,0,0,3.463-1.131l4.131-3.225a109.93,109.93,0,0,0,15.009-14.612c18.175-21.448,28.669-48.214,34.333-75.184a310.81,310.81,0,0,0,5.664-41A384.023,384.023,0,0,0,233.5,382.417Z" transform="translate(-16.757 -343.746)" fill="#14402d"/>
    <path id="Контур_5623" data-name="Контур 5623" d="M215.993,383.449c-1.356,12.217-4.055,24.3-6.972,36.25-3,11.947-6.318,23.811-10.037,35.534-3.789,11.7-7.581,23.382-12.1,34.769-4.515,11.362-9.169,22.728-15.4,33.146a89.588,89.588,0,0,1-4.844,7.657c-.851,1.246-1.733,2.463-2.7,3.612l-1.4,1.758a2.147,2.147,0,0,1-1.045.706c-.609.284-2.335-.124-3.775-.332-1.481-.266-2.972-.574-4.46-.907-2.972-.671-5.948-1.4-8.9-2.228a258.682,258.682,0,0,1-34.745-12.193,246.445,246.445,0,0,1-32.786-16.8A200.984,200.984,0,0,1,47.193,482.69a161.183,161.183,0,0,1-13.04-12.867q-3.088-3.379-5.923-6.955c-.983-1.162-1.886-2.387-2.785-3.612l-1.367-1.823a12.622,12.622,0,0,1-1.1-1.55,2.016,2.016,0,0,1,.349-2.149l3.072-3.387,6.266-6.809c4.173-4.55,8.314-9.145,12.355-13.826,8.107-9.349,15.985-18.915,23.427-28.846A236.563,236.563,0,0,0,88.8,369.543c1.47-2.768,2.841-5.6,4.138-8.477l1.827-4.377.823-2.239L96,353.334a2.259,2.259,0,0,1,.2-.432,1.327,1.327,0,0,1,1.412-.592l4.543.668,9.082,1.464c12.106,2.01,24.2,4.218,36.222,6.768,12.047,2.443,24.033,5.259,35.893,8.567q8.911,2.434,17.646,5.456c2.931.952,5.816,2.027,8.712,3.076,1.422.536,2.948,1.028,4.29,1.6A3.78,3.78,0,0,1,215.993,383.449Zm.519.038a4.35,4.35,0,0,0-2.214-4.131c-1.474-.668-2.882-1.149-4.328-1.733-2.875-1.118-5.743-2.263-8.653-3.287-5.8-2.11-11.636-4.121-17.469-6.162q-17.547-5.958-35.485-10.792c-11.975-3.093-24.04-5.913-36.232-8.089l-9.169-1.536-4.6-.7a6.711,6.711,0,0,0-6.608,2.889,7.806,7.806,0,0,0-.806,1.64l-.391,1.048-.785,2.1-1.754,4.145c-1.253,2.737-2.578,5.449-4.017,8.117-11.7,21.279-26.794,40.851-42.6,59.618L29.374,440.59l-6.1,6.944-3.059,3.529a6.079,6.079,0,0,0-.855,6.515,13.286,13.286,0,0,0,1.56,2.221l1.453,1.841c.962,1.232,1.941,2.45,2.989,3.605q3.036,3.571,6.318,6.9a169.733,169.733,0,0,0,13.736,12.618c19.182,15.84,40.976,27.953,63.493,38.1a356.919,356.919,0,0,0,34.662,13.262c2.951.945,5.937,1.806,8.947,2.612,1.505.4,3.024.772,4.564,1.107.778.159,1.54.332,2.353.457a6.528,6.528,0,0,0,3-.007,5.733,5.733,0,0,0,2.823-1.706l1.557-1.792c1.066-1.18,2.041-2.418,2.982-3.685a89.6,89.6,0,0,0,5.349-7.761c12.909-21.542,20.7-45.339,27.015-69.209q4.645-17.962,8.2-36.146c1.159-6.065,2.38-12.113,3.422-18.2S215.972,389.663,216.512,383.487Z" transform="translate(-6.562 -335.851)" fill="#14402d"/>
    <path id="Контур_5624" data-name="Контур 5624" d="M49.148,455.362a11.7,11.7,0,0,0,8.325,7.456,12.317,12.317,0,0,0,5.823-.024l5.543-1.114a154.715,154.715,0,0,0,21.984-5.972c14.376-5.083,28.06-14.981,35.25-29.254A47.48,47.48,0,0,0,130.01,415.3a26.837,26.837,0,0,0,.135-12.01,15.741,15.741,0,0,0-7.072-9.733,31.665,31.665,0,0,0-10.951-3.941,47.349,47.349,0,0,0-22.811,1.609,44.683,44.683,0,0,0-19.6,12.383l3.816,1.425c.432-6.775.986-13.743.038-20.953a35.327,35.327,0,0,0-9.28-20.012,24.455,24.455,0,0,0-9.965-6.262,22.363,22.363,0,0,0-11.992-.322,18.3,18.3,0,0,0-10.352,6.92,24.105,24.105,0,0,0-3.913,11.127c-2.031,14.494,1.419,28.652,6.166,41.5l3.6,9.664c1.256,3.19,2.636,6.339,3.951,9.508C44.4,442.536,46.8,448.94,49.148,455.362Zm.626-.221c-2.232-6.456-4.408-12.933-6.349-19.479-.945-3.28-1.955-6.536-2.841-9.833q-1.277-4.972-2.391-9.947c-2.83-13.245-5.221-26.558-3.211-39.312a19.47,19.47,0,0,1,2.792-8.037,11.214,11.214,0,0,1,6.366-4.2,15.757,15.757,0,0,1,8.255-.017,17.888,17.888,0,0,1,7.339,4.342c4.311,4.155,7.031,10.141,8.228,16.335,1.2,6.321,1.038,13.106,1.242,19.971l.183,6.2,3.633-4.775c8.6-11.307,24.258-17.628,38.72-14.753a25.926,25.926,0,0,1,9.992,3.927,12.013,12.013,0,0,1,5.228,8.394c.913,6.8-1.913,13.961-5.487,19.988-7.491,12.182-19.289,21.175-32.4,27.714a144.3,144.3,0,0,1-20.711,8.235c-1.785.571-3.567,1.159-5.38,1.64a11.149,11.149,0,0,1-5.318.37A10.621,10.621,0,0,1,49.774,455.14Z" transform="translate(49.129 -311.592)" fill="#14402d"/>
  </g>
</svg>
