<svg xmlns="http://www.w3.org/2000/svg" width="270.649" height="332.498" viewBox="0 0 270.649 332.498">
  <g id="Сгруппировать_572" data-name="Сгруппировать 572" opacity="0.4">
    <g id="Сгруппировать_490" data-name="Сгруппировать 490">
      <path id="Контур_5478" data-name="Контур 5478" d="M488.572,308.223c-17.521,5.523-34.891,11.512-52.174,17.752s-34.461,12.806-51.273,20.292c-4.174,1.936-8.413,3.732-12.522,5.819l-6.2,3.053-6.082,3.3c-2.034,1.086-4.054,2.2-6.005,3.45-1.965,1.22-3.96,2.388-5.9,3.652l-5.672,4.052a9.463,9.463,0,0,0-1.487,1.185,5.889,5.889,0,0,0-1.184,1.8,6.09,6.09,0,0,0-.154,4.231c3.707,8.655,7.446,16.863,11.235,25.288l11.365,25.1c15.291,33.409,31.036,66.608,46.782,99.8,7.946,16.562,15.836,33.151,23.967,49.63l6.147,12.335,6.316,12.253c2.135,4.071,4.376,8.089,6.56,12.135,1.063,2.037,2.32,3.979,3.471,5.973l1.765,2.971a14.8,14.8,0,0,0,2.039,3.008,5.541,5.541,0,0,0,3.627,1.508,5.623,5.623,0,0,0,1.978-.292l1.643-.614,6.44-2.449,12.863-4.94,25.669-10.035c17.088-6.755,34.125-13.65,51.013-20.919,8.451-3.617,16.863-7.33,25.215-11.2,4.18-1.923,8.329-3.926,12.459-5.977a12.571,12.571,0,0,0,1.7-.922,6.157,6.157,0,0,0,1.572-1.593,6.252,6.252,0,0,0,1.027-4.283,7.9,7.9,0,0,0-.568-2l-.623-1.607-1.245-3.211c-6.64-17.132-13.48-34.182-20.328-51.231-13.682-34.1-27.777-68.043-42.6-101.672-7.5-16.776-14.942-33.574-22.879-50.15-1.933-4.166-3.981-8.279-5.975-12.419s-3.989-8.274-6.135-12.339c-2.119-4.077-4.143-8.2-6.474-12.167l-3.393-6A5,5,0,0,0,488.572,308.223Zm.088.273a4.686,4.686,0,0,1,5.6,2.48l3.343,6.017c2.3,3.974,4.288,8.113,6.373,12.2,2.112,4.075,4.073,8.226,6.036,12.375,1.978,4.143,3.951,8.287,5.8,12.491,7.616,16.709,14.742,33.639,21.87,50.56Q558.8,455.5,579.269,506.647l20.29,51.217,1.262,3.2a18.9,18.9,0,0,1,1.029,2.9,3.3,3.3,0,0,1-.532,2.27,4.439,4.439,0,0,1-2.156,1.559c-4.084,2.056-8.2,4.069-12.348,6.005q-12.442,5.844-25.084,11.3-25.252,10.952-50.764,21.35l-25.537,10.32-12.8,5.085-6.408,2.521-1.576.612a3.992,3.992,0,0,1-4.014-.823,14.669,14.669,0,0,1-1.8-2.68l-1.774-2.937c-1.161-1.973-2.421-3.88-3.5-5.906-2.209-4.018-4.475-8-6.638-12.049l-6.4-12.186-6.242-12.276c-4.166-8.18-8.178-16.44-12.243-24.674q-6.012-12.393-11.832-24.878c-15.672-33.222-30.561-66.806-45.521-100.352l-22.41-50.205a3.622,3.622,0,0,1,.067-2.506,4.326,4.326,0,0,1,1.891-2.018l5.5-4c1.895-1.256,3.856-2.428,5.781-3.646,1.91-1.245,3.9-2.367,5.906-3.461l6-3.322,6.11-3.135c4.041-2.154,8.23-4.023,12.348-6.032C419.161,332.482,453.742,319.842,488.66,308.5Z" transform="translate(-335.877 -307.98)" fill="#14402d"/>
      <path id="Контур_5479" data-name="Контур 5479" d="M345.392,341.068a26.4,26.4,0,0,0-5.945,4.574,3.552,3.552,0,0,0-.3,3.869l1.384,3.45,5.584,13.774c3.791,9.154,7.528,18.331,11.4,27.451,7.727,18.247,15.512,36.471,23.6,54.562l24.731,54.063,24.533,54.154,6.211,13.509L443.01,583.9c2.178,4.456,4.465,8.866,6.694,13.3,1.121,2.217,2.392,4.366,3.589,6.551l1.818,3.265a10.609,10.609,0,0,0,1.113,1.774,4.948,4.948,0,0,0,2.072,1.422,5.068,5.068,0,0,0,2.487.234l1.86-.3,3.694-.68c2.445-.507,4.885-1.037,7.305-1.635,4.849-1.163,9.638-2.516,14.411-3.928,9.543-2.832,18.878-6.263,28.16-9.8,18.558-7.1,36.652-15.316,54.44-24.092q13.325-6.615,26.416-13.681l6.549-3.518a11,11,0,0,0,5.142-13.275,45.094,45.094,0,0,0-2.765-6.928l-.259.12a44.531,44.531,0,0,1,2.453,6.966,10.241,10.241,0,0,1-.375,7.027,10.038,10.038,0,0,1-4.757,5.02l-6.652,3.3c-8.832,4.477-17.786,8.7-26.721,12.951q-26.856,12.645-54.522,23.353c-9.232,3.516-18.558,6.779-27.979,9.7-4.713,1.445-9.446,2.832-14.22,4.025-2.384.616-4.78,1.159-7.18,1.683l-3.606.7-1.8.309a2.346,2.346,0,0,1-1.176-.093c-.808-.28-1.14-.772-1.807-2.02l-1.83-3.208c-1.2-2.15-2.472-4.254-3.631-6.436-2.293-4.378-4.643-8.725-6.892-13.13l-6.686-13.256L431.8,556.3c-8.651-17.816-17.073-35.753-25.045-53.891l-5.994-13.6-5.84-13.663L383.289,447.8l-11.811-27.268-11.944-27.211L347.5,366.146l-6.07-13.566-1.523-3.389a2.811,2.811,0,0,1,.065-3.133,27.06,27.06,0,0,1,5.569-4.744Z" transform="translate(-338.717 -278.006)" fill="#14402d"/>
      <path id="Контур_5480" data-name="Контур 5480" d="M420.666,474.508a4.261,4.261,0,0,0-2.4,2.9,13.76,13.76,0,0,1-.048,1.952,3.205,3.205,0,0,1-1.012,1.532,6.27,6.27,0,0,0-1.241,1.435,7.442,7.442,0,0,0-.879,1.591,6.926,6.926,0,0,0-.166,3.871l.261.114a6.938,6.938,0,0,0,2.706-2.773,7.433,7.433,0,0,0,.557-1.731,6.149,6.149,0,0,0,.2-1.887,3.212,3.212,0,0,1,.423-1.788c.318-.518.98-.89,1.389-1.37a4.258,4.258,0,0,0,.473-3.738Z" transform="translate(-295.349 -157.122)" fill="#14402d"/>
      <path id="Контур_5481" data-name="Контур 5481" d="M545.655,315.016q-19.646,7.33-38.5,16.423c-6.251,3.1-12.413,6.392-18.7,9.415-6.3,3-12.688,5.792-19.112,8.517q-9.657,4.042-19.189,8.369c-6.35,2.885-12.707,5.763-18.981,8.82s-12.482,6.249-18.647,9.533-12.268,6.713-18.127,10.538l.143.248,37.95-17.571c12.56-6.042,25.1-12.127,37.512-18.518,6.215-3.169,12.474-6.247,18.84-9.1,6.373-2.83,12.882-5.369,19.3-8.092q19.157-8.411,37.626-18.325Z" transform="translate(-381.248 -301.607)" fill="#14402d"/>
      <path id="Контур_5482" data-name="Контур 5482" d="M470.46,322.131a7.053,7.053,0,0,1,1.788,2.954,4.125,4.125,0,0,1,.162,1.7c-.171.583-.818.734-1.326.987l-6.394,2.836-12.882,5.468-12.882,5.466-6.394,2.834-3.179,1.458-1.588.73-.162.072.044-.015a.237.237,0,0,1,.1-.006.288.288,0,0,1,.194.111,18.013,18.013,0,0,1-1.6-2.746c-.107-.24-.21-.48-.3-.72-.055-.153,0,.042-.034.048a.239.239,0,0,1-.118.132l.705-.334,6.284-3.069,12.476-6.341,12.474-6.345,6.284-3.07,3.162-1.494,1.58-.745A1.26,1.26,0,0,1,470.46,322.131Zm0,0a1.277,1.277,0,0,0-1.616-.114l-1.591.722-3.185,1.445-6.408,2.806-12.909,5.405L431.844,337.8l-6.406,2.807-.88.408a2.545,2.545,0,0,0-1.2,1.449,2.647,2.647,0,0,0,.061,1.757c.109.309.232.606.358.9a19.392,19.392,0,0,0,1.872,3.314,2.546,2.546,0,0,0,1.652.989,2.586,2.586,0,0,0,.968-.036,2.424,2.424,0,0,0,.457-.151l.236-.111,1.576-.753,3.154-1.508,6.27-3.1,12.446-6.4,12.447-6.4,6.27-3.1c.488-.255,1.174-.423,1.357-1.062a4.109,4.109,0,0,0-.187-1.742A7.066,7.066,0,0,0,470.46,322.131Z" transform="translate(-362.955 -295.476)" fill="#14402d"/>
      <path id="Контур_5483" data-name="Контур 5483" d="M447.5,421.123a127.2,127.2,0,0,0,11.982-24.861,109.022,109.022,0,0,0,3.917-13.294c.947-4.559,1.189-9.535-.375-14.153a17.489,17.489,0,0,0-3.646-6.253,14.149,14.149,0,0,0-6.086-3.861,11.487,11.487,0,0,0-7.132.015,15.646,15.646,0,0,0-5.878,3.846,29.821,29.821,0,0,0-6.856,11.992,36.84,36.84,0,0,0-1.773,13.789l1.468-.751c-6.4-5.939-15.556-9.406-24.636-7.612a11.745,11.745,0,0,0-6.2,3.543,16.263,16.263,0,0,0-3.311,6.169,19.783,19.783,0,0,0,1.1,13.538,18.8,18.8,0,0,0,3.974,5.653,20.528,20.528,0,0,0,5.693,3.76,78.413,78.413,0,0,0,12.385,4.035C430.542,418.7,438.888,419.8,447.5,421.123Zm-.12-.261c-8.075-2.262-16.618-3.854-24.68-6.307a76.642,76.642,0,0,1-11.777-4.338,19.683,19.683,0,0,1-4.849-3.408,15.84,15.84,0,0,1-3.255-4.822,17.346,17.346,0,0,1-.93-11.468,13.389,13.389,0,0,1,2.567-5.091,8.917,8.917,0,0,1,4.694-2.783,24.45,24.45,0,0,1,11.956.534,31.1,31.1,0,0,1,10.85,5.754l1.732,1.4-.267-2.152a34.368,34.368,0,0,1,1.022-13.318c1.306-4.279,3.263-8.519,6.467-11.668a13.427,13.427,0,0,1,5.571-3.461,9.72,9.72,0,0,1,6.337.337,13.524,13.524,0,0,1,8.016,9.423,28.041,28.041,0,0,1,.059,12.975,133.5,133.5,0,0,1-3.541,13.076A207.674,207.674,0,0,1,447.377,420.862Z" transform="translate(-306.976 -262.54)" fill="#14402d"/>
      <path id="Контур_5484" data-name="Контур 5484" d="M423.039,347.907a8.011,8.011,0,0,0,.242,2.891,11.107,11.107,0,0,0,.945,2.527,10.907,10.907,0,0,0,1.509,2.238,7.961,7.961,0,0,0,2.218,1.872,7.931,7.931,0,0,0-.236-2.893,11.534,11.534,0,0,0-2.462-4.763A8,8,0,0,0,423.039,347.907Z" transform="translate(-317.978 -271.811)" fill="#14402d"/>
      <path id="Контур_5485" data-name="Контур 5485" d="M395.831,388.737a20.176,20.176,0,0,0-4.4-1.761,33.842,33.842,0,0,0-9.127-1.327,20.1,20.1,0,0,0-4.723.442,20.007,20.007,0,0,0,4.4,1.765,33.827,33.827,0,0,0,9.127,1.319A20.394,20.394,0,0,0,395.831,388.737Z" transform="translate(-199.246 -237.621)" fill="#14402d"/>
      <path id="Контур_5486" data-name="Контур 5486" d="M395.793,401.9a10.127,10.127,0,0,0,.185,3.293,14.7,14.7,0,0,0,.915,2.987,14.53,14.53,0,0,0,1.5,2.739,10.032,10.032,0,0,0,2.236,2.428,10.083,10.083,0,0,0-.181-3.3,14.539,14.539,0,0,0-.921-2.985,14.8,14.8,0,0,0-1.5-2.737A10.172,10.172,0,0,0,395.793,401.9Z" transform="translate(-238.703 -222.898)" fill="#14402d"/>
      <path id="Контур_5487" data-name="Контур 5487" d="M425.832,402.654a18.079,18.079,0,0,0-1.917,4.035,28.382,28.382,0,0,0-1.136,4.185,27.675,27.675,0,0,0-.516,4.305,17.835,17.835,0,0,0,.269,4.458,17.914,17.914,0,0,0,1.921-4.033,27.983,27.983,0,0,0,1.132-4.185,28.483,28.483,0,0,0,.513-4.307A18.1,18.1,0,0,0,425.832,402.654Z" transform="translate(-314.647 -222.215)" fill="#14402d"/>
      <path id="Контур_5488" data-name="Контур 5488" d="M447.621,389.524a11.132,11.132,0,0,0-3.4.64,16.355,16.355,0,0,0-3.013,1.33,16.155,16.155,0,0,0-2.7,1.881,11,11,0,0,0-2.31,2.581,10.96,10.96,0,0,0,3.4-.637,16.167,16.167,0,0,0,3.011-1.334,16.475,16.475,0,0,0,2.7-1.885A11.137,11.137,0,0,0,447.621,389.524Z" transform="translate(-362.755 -234.11)" fill="#14402d"/>
      <path id="Контур_5489" data-name="Контур 5489" d="M458.67,371.172a22.306,22.306,0,0,0-4.475-2.194,37.48,37.48,0,0,0-9.457-2.228,22.1,22.1,0,0,0-4.984-.027,21.951,21.951,0,0,0,4.473,2.2,34.93,34.93,0,0,0,4.658,1.418,35.49,35.49,0,0,0,4.8.8A22.427,22.427,0,0,0,458.67,371.172Z" transform="translate(-380.587 -254.882)" fill="#14402d"/>
      <path id="Контур_5490" data-name="Контур 5490" d="M395.95,357.292a22.666,22.666,0,0,0-4.439,2.346,36.358,36.358,0,0,0-3.922,2.95,35.669,35.669,0,0,0-3.511,3.429,22.288,22.288,0,0,0-2.988,4.037,22.463,22.463,0,0,0,4.441-2.344,36.113,36.113,0,0,0,3.92-2.952,36.565,36.565,0,0,0,3.509-3.433A22.84,22.84,0,0,0,395.95,357.292Z" transform="translate(-206.059 -263.309)" fill="#14402d"/>
      <path id="Контур_5491" data-name="Контур 5491" d="M401.034,338.937a21.027,21.027,0,0,0-1.99,4.408,35.256,35.256,0,0,0-1.8,9.238,20.8,20.8,0,0,0,.194,4.833,20.808,20.808,0,0,0,2-4.406,35.134,35.134,0,0,0,1.8-9.24A21.114,21.114,0,0,0,401.034,338.937Z" transform="translate(-242.063 -279.937)" fill="#14402d"/>
      <path id="Контур_5492" data-name="Контур 5492" d="M503.781,405.249a399.578,399.578,0,0,0-38.276,14.456c-6.213,2.817-12.346,5.817-18.575,8.592-6.248,2.727-12.56,5.3-18.918,7.78-6.347,2.5-12.69,5.022-18.928,7.786q-9.4,4.04-18.666,8.415c-6.131,3.009-12.207,6.135-18.173,9.486A142.134,142.134,0,0,0,355.014,472.9l.164.234c5.939-3.368,11.956-6.476,18.1-9.392,6.093-3.011,12.3-5.79,18.445-8.712,12.293-5.832,24.647-11.555,36.91-17.521,6.156-2.927,12.345-5.788,18.655-8.359s12.762-4.812,19.126-7.248q19.009-7.519,37.468-16.387Z" transform="translate(-264.297 -219.865)" fill="#14402d"/>
      <path id="Контур_5493" data-name="Контур 5493" d="M493.368,426.441c-12.787,3.995-25.32,8.655-37.621,13.89-6.118,2.693-12.146,5.609-18.285,8.243s-12.379,5.032-18.638,7.391q-18.8,7.01-37.125,15.2c-6.1,2.758-12.1,5.723-18.045,8.817-2.975,1.542-5.914,3.152-8.8,4.887-1.441.863-2.9,1.672-4.286,2.642l-4.1,2.933.166.233,4.4-2.369c1.456-.791,3.021-1.414,4.5-2.163,2.971-1.492,6.059-2.767,9.089-4.153,3.015-1.408,6.087-2.714,9.148-4.037l9.167-4.006,18.26-8.207c6.108-2.695,12.162-5.519,18.222-8.336s12.165-5.535,18.384-7.976,12.558-4.582,18.826-6.894q18.7-7.193,36.832-15.832Z" transform="translate(-237.599 -200.667)" fill="#14402d"/>
      <path id="Контур_5494" data-name="Контур 5494" d="M377.246,461.906a12.274,12.274,0,0,0,5.352,5.453,8.529,8.529,0,0,0,8-.414,10.635,10.635,0,0,0,4.546-6.417,12.011,12.011,0,0,0-.349-7.675,9.61,9.61,0,0,0-5.786-5.573,10.284,10.284,0,0,0-8.285.528,9.224,9.224,0,0,0-4.847,6.57A12.12,12.12,0,0,0,377.246,461.906Zm.255-.13a7.425,7.425,0,0,1,.166-6.827,10.319,10.319,0,0,1,4.452-4.431,8.689,8.689,0,0,1,6.07-.677,9.434,9.434,0,0,1,5.215,3.728,7.476,7.476,0,0,1,.856,6.678,8.2,8.2,0,0,1-4.753,4.584,12.077,12.077,0,0,1-6.356.791A7.365,7.365,0,0,1,377.5,461.777Z" transform="translate(-195.51 -182.357)" fill="#14402d"/>
      <path id="Контур_5495" data-name="Контур 5495" d="M381.212,445.914a17.72,17.72,0,0,0,8.7,8.264,14.028,14.028,0,0,0,12.358-.766,16.438,16.438,0,0,0,7.37-9.758,17.613,17.613,0,0,0-.715-12.038,15.407,15.407,0,0,0-9.129-8.4,16.006,16.006,0,0,0-12.646.894,14.88,14.88,0,0,0-7.671,9.913A17.725,17.725,0,0,0,381.212,445.914Zm.253-.132a13.034,13.034,0,0,1-.2-11.186,15.855,15.855,0,0,1,7.277-7.774,14.39,14.39,0,0,1,10.431-1.043,15,15,0,0,1,8.556,6.553,13.1,13.1,0,0,1,1.222,11.039,13.885,13.885,0,0,1-7.578,7.927,17.37,17.37,0,0,1-10.719,1.17A13.052,13.052,0,0,1,381.466,445.783Z" transform="translate(-216.689 -204.397)" fill="#14402d"/>
      <path id="Контур_5496" data-name="Контур 5496" d="M399.845,446.208a10.055,10.055,0,0,0,3.959,4.275,6.212,6.212,0,0,0,6.183-.261,8.264,8.264,0,0,0,3.366-5.024,9.79,9.79,0,0,0-.192-5.861,7.279,7.279,0,0,0-4.393-4.4,7.9,7.9,0,0,0-6.47.379,6.885,6.885,0,0,0-3.669,5.178A9.863,9.863,0,0,0,399.845,446.208Zm.255-.131a5.132,5.132,0,0,1,.32-5.009,8.144,8.144,0,0,1,3.276-3.036,6.323,6.323,0,0,1,4.248-.52,7.007,7.007,0,0,1,3.823,2.544,5.148,5.148,0,0,1,.705,4.862,5.781,5.781,0,0,1-3.577,3.191,10.831,10.831,0,0,1-4.538.639A5.081,5.081,0,0,1,400.1,446.076Z" transform="translate(-257.129 -193.438)" fill="#14402d"/>
      <path id="Контур_5497" data-name="Контур 5497" d="M412.175,452.572a10.051,10.051,0,0,0,3.959,4.273,6.207,6.207,0,0,0,6.183-.259,8.276,8.276,0,0,0,3.366-5.026,9.784,9.784,0,0,0-.193-5.859,7.291,7.291,0,0,0-4.393-4.4,7.9,7.9,0,0,0-6.47.379,6.889,6.889,0,0,0-3.669,5.18A9.852,9.852,0,0,0,412.175,452.572Zm.255-.132a5.137,5.137,0,0,1,.318-5.009,8.186,8.186,0,0,1,3.276-3.038,6.327,6.327,0,0,1,4.25-.518,7,7,0,0,1,3.823,2.544,5.145,5.145,0,0,1,.705,4.86,5.776,5.776,0,0,1-3.577,3.19,10.833,10.833,0,0,1-4.538.64A5.084,5.084,0,0,1,412.43,452.44Z" transform="translate(-292.959 -187.675)" fill="#14402d"/>
      <path id="Контур_5498" data-name="Контур 5498" d="M355.026,426.28a10.065,10.065,0,0,0,3.473,4.677,6.212,6.212,0,0,0,6.175.412,8.274,8.274,0,0,0,3.89-4.633,9.8,9.8,0,0,0,.442-5.845,7.294,7.294,0,0,0-3.892-4.851,7.9,7.9,0,0,0-6.474-.32,6.881,6.881,0,0,0-4.206,4.751A9.837,9.837,0,0,0,355.026,426.28Zm.267-.1a5.136,5.136,0,0,1,.86-4.944,8.168,8.168,0,0,1,3.585-2.666,6.322,6.322,0,0,1,4.281-.055,6.987,6.987,0,0,1,3.526,2.943,5.15,5.15,0,0,1,.177,4.908,5.788,5.788,0,0,1-3.9,2.786,10.861,10.861,0,0,1-4.58.145A5.09,5.09,0,0,1,355.293,426.177Z" transform="translate(-128.16 -210.873)" fill="#14402d"/>
      <path id="Контур_5499" data-name="Контур 5499" d="M367.972,431.272a10.056,10.056,0,0,0,3.474,4.677,6.207,6.207,0,0,0,6.173.412,8.281,8.281,0,0,0,3.89-4.633,9.8,9.8,0,0,0,.442-5.845,7.294,7.294,0,0,0-3.892-4.851,7.905,7.905,0,0,0-6.474-.322,6.888,6.888,0,0,0-4.206,4.753A9.837,9.837,0,0,0,367.972,431.272Zm.267-.1a5.136,5.136,0,0,1,.86-4.944,8.169,8.169,0,0,1,3.585-2.666,6.334,6.334,0,0,1,4.281-.057,7.005,7.005,0,0,1,3.526,2.943,5.154,5.154,0,0,1,.177,4.91,5.787,5.787,0,0,1-3.9,2.786,10.861,10.861,0,0,1-4.58.145A5.09,5.09,0,0,1,368.239,431.169Z" transform="translate(-165.78 -206.351)" fill="#14402d"/>
    </g>
    <g id="Сгруппировать_491" data-name="Сгруппировать 491" transform="translate(98.823 251.724)">
      <path id="Контур_5500" data-name="Контур 5500" d="M426.343,469.635a11.829,11.829,0,0,0-7.317,6.673,13.656,13.656,0,0,0,4.21-2.731A13.8,13.8,0,0,0,426.343,469.635Z" transform="translate(-395.578 -423.26)" fill="#14402d"/>
      <path id="Контур_5501" data-name="Контур 5501" d="M426.99,466.172a10.134,10.134,0,0,0-3.707,2.718,10.016,10.016,0,0,0-2.289,3.989,11.1,11.1,0,0,0,6-6.707Z" transform="translate(-399.976 -426.398)" fill="#14402d"/>
      <path id="Контур_5502" data-name="Контур 5502" d="M429,462.369a13.2,13.2,0,0,0-3.535,2.461,12.917,12.917,0,0,0-2.676,3.377A7.759,7.759,0,0,0,429,462.369Z" transform="translate(-405.404 -429.843)" fill="#14402d"/>
      <path id="Контур_5503" data-name="Контур 5503" d="M431.251,459.289a8.537,8.537,0,0,0-3.848,1.7,8.438,8.438,0,0,0-2.7,3.223,8.437,8.437,0,0,0,3.848-1.7A8.565,8.565,0,0,0,431.251,459.289Z" transform="translate(-411.3 -432.633)" fill="#14402d"/>
      <path id="Контур_5504" data-name="Контур 5504" d="M431.932,456.345a7.186,7.186,0,0,0-3.488,1.609,7.094,7.094,0,0,0-2.287,3.088,7.747,7.747,0,0,0,5.775-4.7Z" transform="translate(-414.758 -435.3)" fill="#14402d"/>
      <path id="Контур_5505" data-name="Контур 5505" d="M434.307,452.518a10.137,10.137,0,0,0-6.655,5.418,9.19,9.19,0,0,0,3.928-1.971A9.3,9.3,0,0,0,434.307,452.518Z" transform="translate(-419.983 -438.767)" fill="#14402d"/>
      <path id="Контур_5506" data-name="Контур 5506" d="M436.316,448.538a12.464,12.464,0,0,0-3.776,2.539,12.267,12.267,0,0,0-2.75,3.625,8.479,8.479,0,0,0,4.058-2.239A8.576,8.576,0,0,0,436.316,448.538Z" transform="translate(-426.066 -442.372)" fill="#14402d"/>
      <path id="Контур_5507" data-name="Контур 5507" d="M438.162,445.3a9.67,9.67,0,0,0-3.812,2.359,9.558,9.558,0,0,0-2.487,3.73,9.542,9.542,0,0,0,3.812-2.359A9.669,9.669,0,0,0,438.162,445.3Z" transform="translate(-431.863 -445.303)" fill="#14402d"/>
      <path id="Контур_5508" data-name="Контур 5508" d="M397.856,480.177a8.671,8.671,0,0,0-.825-3.661,30.993,30.993,0,0,0-1.692-3.231,24.791,24.791,0,0,0-4.565-5.727,24.923,24.923,0,0,0,2.922,6.692,34.957,34.957,0,0,0,2.039,2.983C396.438,478.218,397.155,479.121,397.856,480.177Z" transform="translate(-313.251 -425.142)" fill="#14402d"/>
      <path id="Контур_5509" data-name="Контур 5509" d="M399.708,481.032a20.793,20.793,0,0,0-7.233-12.125,31.9,31.9,0,0,0,3.04,6.406A32.371,32.371,0,0,0,399.708,481.032Z" transform="translate(-318.339 -423.92)" fill="#14402d"/>
      <path id="Контур_5510" data-name="Контур 5510" d="M401.726,481.859a2.742,2.742,0,0,0,.011-1.854c-.166-.577-.334-1.123-.538-1.668a30.326,30.326,0,0,0-1.374-3.166,29.584,29.584,0,0,0-1.75-2.975,15.386,15.386,0,0,0-2.356-2.663,17.712,17.712,0,0,0,1.031,3.337,29.019,29.019,0,0,0,1.376,3.164,29.953,29.953,0,0,0,1.752,2.975c.314.48.675.955,1.021,1.4A3.722,3.722,0,0,1,401.726,481.859Z" transform="translate(-326.714 -423.352)" fill="#14402d"/>
      <path id="Контур_5511" data-name="Контур 5511" d="M403.994,482.3a18.511,18.511,0,0,0-1.959-6.642,18.321,18.321,0,0,0-4.081-5.592,27.969,27.969,0,0,0,2.373,6.436A28.42,28.42,0,0,0,403.994,482.3Z" transform="translate(-333.067 -422.874)" fill="#14402d"/>
      <path id="Контур_5512" data-name="Контур 5512" d="M405.2,483.462a28.845,28.845,0,0,0-1.826-6.613,28.4,28.4,0,0,0-3.151-6.093,20.089,20.089,0,0,0,4.976,12.707Z" transform="translate(-338.582 -422.246)" fill="#14402d"/>
    </g>
  </g>
</svg>
